<svg width="241" height="190" viewBox="0 0 241 190" fill="none" xmlns="http://www.w3.org/2000/svg">
<path d="M55.225 152V137.781H60.205C61.93 137.781 63.239 138.113 64.131 138.777C65.023 139.435 65.469 140.402 65.469 141.678C65.469 142.374 65.29 142.99 64.932 143.523C64.574 144.051 64.076 144.438 63.438 144.686C64.167 144.868 64.74 145.236 65.156 145.789C65.579 146.342 65.791 147.02 65.791 147.82C65.791 149.188 65.355 150.223 64.482 150.926C63.61 151.629 62.367 151.987 60.752 152H55.225ZM58.154 145.809V149.646H60.664C61.354 149.646 61.891 149.484 62.275 149.158C62.666 148.826 62.861 148.37 62.861 147.791C62.861 146.489 62.188 145.828 60.84 145.809H58.154ZM58.154 143.738H60.322C61.8 143.712 62.539 143.123 62.539 141.971C62.539 141.326 62.35 140.864 61.973 140.584C61.602 140.298 61.012 140.154 60.205 140.154H58.154V143.738ZM70.83 144.529H72.852C73.763 144.529 74.564 144.682 75.254 144.988C75.944 145.294 76.471 145.734 76.836 146.307C77.207 146.873 77.393 147.534 77.393 148.289C77.393 149.402 76.979 150.301 76.152 150.984C75.332 151.661 74.212 152 72.793 152H67.998V141.434H70.83V144.529ZM81.885 152H79.062V141.434H81.885V152ZM70.83 146.795V149.744H72.832C73.392 149.744 73.822 149.614 74.121 149.354C74.421 149.093 74.57 148.738 74.57 148.289C74.57 147.833 74.424 147.472 74.131 147.205C73.838 146.932 73.405 146.795 72.832 146.795H70.83ZM89.541 152V141.434H93.955C95.394 141.434 96.497 141.688 97.266 142.195C98.034 142.703 98.418 143.432 98.418 144.383C98.418 144.871 98.255 145.311 97.93 145.701C97.611 146.085 97.142 146.382 96.523 146.59C97.279 146.733 97.871 147.016 98.301 147.439C98.737 147.856 98.955 148.37 98.955 148.982C98.955 149.965 98.584 150.714 97.842 151.229C97.106 151.743 96.035 152 94.629 152H89.541ZM92.363 147.615V149.744H94.639C95.635 149.744 96.133 149.396 96.133 148.699C96.133 147.99 95.658 147.628 94.707 147.615H92.363ZM92.363 145.721H94.111C95.101 145.708 95.596 145.389 95.596 144.764C95.596 144.38 95.459 144.106 95.186 143.943C94.919 143.781 94.508 143.699 93.955 143.699H92.363V145.721ZM103.701 144.529H105.723C106.634 144.529 107.435 144.682 108.125 144.988C108.815 145.294 109.342 145.734 109.707 146.307C110.078 146.873 110.264 147.534 110.264 148.289C110.264 149.402 109.85 150.301 109.023 150.984C108.203 151.661 107.083 152 105.664 152H100.869V141.434H103.701V144.529ZM114.756 152H111.934V141.434H114.756V152ZM103.701 146.795V149.744H105.703C106.263 149.744 106.693 149.614 106.992 149.354C107.292 149.093 107.441 148.738 107.441 148.289C107.441 147.833 107.295 147.472 107.002 147.205C106.709 146.932 106.276 146.795 105.703 146.795H103.701ZM123.613 141.434H126.436V152H123.613V145.477L120.078 152H117.246V141.434H120.078V147.947L123.613 141.434ZM135.791 143.719H131.416V152H128.594V141.434H135.791V143.719ZM146.484 146.814C146.484 148.442 146.113 149.747 145.371 150.73C144.635 151.707 143.639 152.195 142.383 152.195C141.315 152.195 140.452 151.824 139.795 151.082V156.062H136.973V141.434H139.59L139.688 142.469C140.371 141.648 141.263 141.238 142.363 141.238C143.665 141.238 144.678 141.72 145.4 142.684C146.123 143.647 146.484 144.975 146.484 146.668V146.814ZM143.662 146.609C143.662 145.626 143.486 144.868 143.135 144.334C142.79 143.8 142.285 143.533 141.621 143.533C140.736 143.533 140.127 143.872 139.795 144.549V148.875C140.14 149.572 140.755 149.92 141.641 149.92C142.988 149.92 143.662 148.816 143.662 146.609ZM154.365 152C154.235 151.746 154.141 151.43 154.082 151.053C153.398 151.814 152.51 152.195 151.416 152.195C150.381 152.195 149.521 151.896 148.838 151.297C148.161 150.698 147.822 149.943 147.822 149.031C147.822 147.911 148.236 147.052 149.062 146.453C149.896 145.854 151.097 145.551 152.666 145.545H153.965V144.939C153.965 144.451 153.838 144.061 153.584 143.768C153.337 143.475 152.943 143.328 152.402 143.328C151.927 143.328 151.553 143.442 151.279 143.67C151.012 143.898 150.879 144.21 150.879 144.607H148.057C148.057 143.995 148.245 143.429 148.623 142.908C149.001 142.387 149.535 141.98 150.225 141.688C150.915 141.388 151.689 141.238 152.549 141.238C153.851 141.238 154.883 141.567 155.645 142.225C156.413 142.876 156.797 143.794 156.797 144.979V149.559C156.803 150.561 156.943 151.32 157.217 151.834V152H154.365ZM152.031 150.037C152.448 150.037 152.832 149.946 153.184 149.764C153.535 149.575 153.796 149.324 153.965 149.012V147.195H152.91C151.497 147.195 150.745 147.684 150.654 148.66L150.645 148.826C150.645 149.178 150.768 149.467 151.016 149.695C151.263 149.923 151.602 150.037 152.031 150.037ZM168.154 141.434V152H165.332V143.719H162.842L162.666 146.98C162.555 148.719 162.214 149.985 161.641 150.779C161.068 151.574 160.215 151.98 159.082 152H158.125L158.096 149.705L158.447 149.676C158.955 149.637 159.326 149.337 159.561 148.777C159.795 148.217 159.941 147.264 160 145.916L160.195 141.434H168.154ZM176.699 141.434H179.521V152H176.699V145.477L173.164 152H170.332V141.434H173.164V147.947L176.699 141.434ZM184.551 147.635H182.207L181.875 137.781H184.883L184.551 147.635ZM183.379 149.178C183.854 149.178 184.235 149.318 184.521 149.598C184.814 149.878 184.961 150.236 184.961 150.672C184.961 151.102 184.814 151.456 184.521 151.736C184.235 152.016 183.854 152.156 183.379 152.156C182.91 152.156 182.529 152.016 182.236 151.736C181.95 151.456 181.807 151.102 181.807 150.672C181.807 150.242 181.95 149.887 182.236 149.607C182.529 149.321 182.91 149.178 183.379 149.178Z" fill="#DE9628"/>
<path d="M121.024 126.999C131.061 126.999 139.197 125.474 139.197 123.592C139.197 121.71 131.061 120.185 121.024 120.185C110.987 120.185 102.851 121.71 102.851 123.592C102.851 125.474 110.987 126.999 121.024 126.999Z" fill="black" fill-opacity="0.055"/>
<path fill-rule="evenodd" clip-rule="evenodd" d="M119.993 113.48L117.679 117.719C118.776 117.847 119.893 117.914 121.024 117.914C136.707 117.914 149.42 105.201 149.42 89.519C149.42 76.7316 140.967 65.9187 129.345 62.3621L128.585 69.1532C127.848 75.2303 128.953 81.069 131.162 86.788C132.536 90.281 134.188 94.28 135.506 97.472C136.662 100.269 137.561 102.445 137.79 103.113C138.036 103.828 138.036 104.424 138.036 105.02C137.913 106.569 137.299 107.403 136.194 108.594C134.967 110.024 133.003 112.288 131.776 113.48C130.794 114.433 129.198 115.982 127.603 114.552C125.884 113.122 126.744 111.454 127.725 110.382C128.676 109.305 129.474 108.426 130.382 107.426L130.383 107.425C130.881 106.876 131.413 106.29 132.021 105.615C132.39 105.258 132.512 104.543 132.144 103.947C131.653 102.994 130.426 100.611 129.935 99.777C129.321 98.585 128.216 98.108 126.866 98.585L124.534 99.181C123.184 99.657 122.448 101.087 122.325 102.517L121.343 109.667C121.22 111.097 120.729 112.288 119.993 113.48ZM92.629 89.519C92.629 102.075 100.779 112.727 112.077 116.475L114.347 111.574C114.961 110.382 115.452 108.595 115.575 107.284C115.575 107.284 116.311 98.943 116.434 96.203C116.434 94.296 114.715 90.007 113.856 87.981C112.373 84.7177 109.855 83.6963 106.109 82.1771C105.205 81.8102 104.228 81.4142 103.178 80.9506C101.226 80.1269 97.34 78.6769 95.125 77.8601C93.522 81.417 92.629 85.364 92.629 89.519ZM102.004 75.2269C100.369 74.6033 98.94 74.0579 97.543 73.5487C99.985 69.9646 103.226 66.9686 107.01 64.817C106.336 65.7396 105.945 66.8308 105.945 68.0001C105.945 71.3138 109.079 74.0001 112.945 74.0001C116.811 74.0001 119.945 71.3138 119.945 68.0001C119.945 64.9395 117.272 62.4142 113.817 62.0462C116.119 61.4441 118.534 61.1235 121.024 61.1235C122.103 61.1235 123.168 61.1837 124.216 61.3009C124.05 62.5397 123.868 63.8829 123.692 65.1882C123.3 68.0935 122.933 70.8115 122.816 71.7755C122.377 74.8666 120.661 75.7647 118.898 76.6873C118.691 76.7962 118.482 76.9053 118.275 77.0184L118.103 77.1058C115.37 78.4911 113.403 79.489 109.315 77.9717C106.348 76.8849 104.02 75.9964 102.004 75.227V75.2269Z" fill="#FFCD17"/>
<path d="M106.527 68.7177L107.024 68.6647L106.527 68.7177ZM113.646 74.4372L113.679 74.9361C113.684 74.9357 113.69 74.9353 113.695 74.9347L113.646 74.4372ZM119.537 67.5261L119.04 67.5791L119.537 67.5261ZM115.177 121.61C115.038 121.848 115.118 122.154 115.357 122.293C115.596 122.432 115.902 122.351 116.041 122.113L115.177 121.61ZM120.396 113.639L119.97 113.376L119.963 113.388L120.396 113.639ZM121.746 109.826L121.25 109.758C121.249 109.767 121.248 109.775 121.247 109.784L121.746 109.826ZM122.728 102.677L123.223 102.745C123.224 102.736 123.225 102.728 123.226 102.72L122.728 102.677ZM124.937 99.34L124.813 98.856C124.799 98.86 124.784 98.864 124.77 98.869L124.937 99.34ZM127.269 98.745L127.393 99.229C127.407 99.225 127.421 99.221 127.435 99.216L127.269 98.745ZM130.337 99.936L129.893 100.165C129.897 100.174 129.902 100.182 129.906 100.19L130.337 99.936ZM132.547 104.107L132.102 104.336C132.108 104.347 132.115 104.358 132.121 104.37L132.547 104.107ZM132.424 105.775L132.076 105.416C132.068 105.424 132.06 105.432 132.053 105.44L132.424 105.775ZM130.785 107.585L130.415 107.249L130.785 107.585ZM128.128 110.541L128.497 110.879L128.503 110.872L128.128 110.541ZM128.005 114.712L128.339 114.339C128.334 114.335 128.33 114.331 128.325 114.327L128.005 114.712ZM132.178 113.639L132.527 113.998L132.178 113.639ZM136.597 108.754L136.23 108.414C136.226 108.419 136.222 108.423 136.218 108.428L136.597 108.754ZM138.438 105.179L138.937 105.219C138.938 105.205 138.938 105.192 138.938 105.179H138.438ZM138.193 103.273L137.72 103.435L138.193 103.273ZM135.909 97.631L136.371 97.44L135.909 97.631ZM131.565 86.948L131.098 87.128L131.099 87.131L131.565 86.948ZM128.987 69.3129L129.484 69.373V69.3685L128.987 69.3129ZM130.712 58.406C130.742 58.1316 130.545 57.8842 130.27 57.8535C129.996 57.8228 129.748 58.0203 129.718 58.2948L130.712 58.406ZM114.75 111.734L114.305 111.505L114.303 111.509L114.75 111.734ZM115.977 107.444L116.475 107.491V107.488L115.977 107.444ZM116.837 96.362L117.336 96.385C117.336 96.377 117.337 96.37 117.337 96.362H116.837ZM114.259 88.141L114.719 87.945L114.714 87.934L114.259 88.141ZM106.512 82.3367L106.324 82.8L106.512 82.3367ZM103.581 81.1102L103.783 80.6527L103.775 80.6496L103.581 81.1102ZM93.884 77.4164L94.055 76.9465L94.0511 76.9449L93.884 77.4164ZM95.971 73.0076L95.79 73.4736C95.796 73.476 95.802 73.4782 95.808 73.4803L95.971 73.0076ZM102.406 75.3866L102.585 74.9194L102.406 75.3866ZM109.718 78.1313L109.892 77.6626L109.89 77.6618L109.718 78.1313ZM118.505 77.2654L118.731 77.7113L118.505 77.2654ZM118.678 77.1781L118.904 77.6241C118.908 77.6218 118.913 77.6194 118.917 77.6169L118.678 77.1781ZM119.301 76.847L119.069 76.404L119.301 76.847ZM123.219 71.9351L123.714 72.0055L123.715 71.9953L123.219 71.9351ZM124.095 65.3478L124.591 65.4147L124.095 65.3478ZM125.679 57.221C125.713 56.9469 125.518 56.6973 125.244 56.6634C124.97 56.6296 124.72 56.8243 124.687 57.0983L125.679 57.221ZM109.639 120.804C109.515 121.05 109.615 121.351 109.862 121.475C110.108 121.599 110.409 121.499 110.533 121.252L109.639 120.804ZM107.024 68.6647C106.688 65.51 109.159 62.6364 112.468 62.304L112.368 61.309C108.559 61.6916 105.629 65.0142 106.029 68.7706L107.024 68.6647ZM113.612 73.9383C110.297 74.1603 107.361 71.8299 107.024 68.6647L106.029 68.7706C106.429 72.5165 109.876 75.1907 113.679 74.9361L113.612 73.9383ZM119.04 67.5791C119.376 70.7338 116.905 73.6074 113.596 73.9397L113.695 74.9347C117.505 74.5521 120.434 71.2295 120.034 67.4731L119.04 67.5791ZM112.468 62.304C115.756 61.9739 118.701 64.3988 119.04 67.5791L120.034 67.4731C119.637 63.7422 116.199 60.9243 112.368 61.309L112.468 62.304ZM116.041 122.113L120.828 113.891L119.963 113.388L115.177 121.61L116.041 122.113ZM120.821 113.902C121.586 112.664 122.113 111.398 122.244 109.869L121.247 109.784C121.133 111.114 120.678 112.231 119.97 113.376L120.821 113.902ZM122.241 109.894L123.223 102.745L122.232 102.609L121.25 109.758L122.241 109.894ZM123.226 102.72C123.339 101.396 124.01 100.198 125.103 99.812L124.77 98.869C123.163 99.436 122.361 101.098 122.229 102.634L123.226 102.72ZM125.061 99.825L127.393 99.229L127.145 98.26L124.813 98.856L125.061 99.825ZM127.435 99.216C128.019 99.01 128.505 99.024 128.894 99.179C129.283 99.335 129.63 99.655 129.893 100.165L130.782 99.707C130.431 99.026 129.919 98.512 129.265 98.251C128.61 97.989 127.869 98.003 127.102 98.273L127.435 99.216ZM129.906 100.19C130.388 101.008 131.607 103.374 132.102 104.336L132.991 103.878C132.505 102.933 131.268 100.532 130.768 99.683L129.906 100.19ZM132.121 104.37C132.376 104.781 132.263 105.234 132.076 105.416L132.772 106.134C133.321 105.601 133.454 104.624 132.972 103.844L132.121 104.37ZM132.053 105.44C131.445 106.115 130.913 106.7 130.415 107.249L131.155 107.921C131.654 107.372 132.186 106.786 132.795 106.11L132.053 105.44ZM130.415 107.249C129.507 108.249 128.707 109.13 127.753 110.21L128.503 110.872C129.451 109.798 130.247 108.922 131.155 107.921L130.415 107.249ZM127.759 110.204C127.242 110.769 126.707 111.541 126.561 112.409C126.407 113.327 126.699 114.275 127.686 115.096L128.325 114.327C127.593 113.718 127.456 113.117 127.547 112.575C127.647 111.984 128.033 111.386 128.497 110.879L127.759 110.204ZM127.672 115.084C128.139 115.502 128.633 115.725 129.14 115.779C129.641 115.831 130.112 115.714 130.529 115.524C131.343 115.154 132.049 114.462 132.527 113.998L131.83 113.281C131.326 113.77 130.743 114.329 130.115 114.614C129.811 114.752 129.522 114.813 129.245 114.784C128.973 114.756 128.67 114.636 128.339 114.339L127.672 115.084ZM132.527 113.998C133.774 112.787 135.754 110.504 136.976 109.08L136.218 108.428C134.986 109.863 133.038 112.108 131.83 113.281L132.527 113.998ZM136.964 109.094C137.519 108.494 137.985 107.951 138.323 107.344C138.667 106.725 138.87 106.058 138.937 105.219L137.94 105.14C137.884 105.849 137.718 106.374 137.449 106.857C137.173 107.352 136.779 107.822 136.23 108.414L136.964 109.094ZM138.938 105.179C138.938 104.583 138.941 103.912 138.666 103.11L137.72 103.435C137.936 104.063 137.938 104.584 137.938 105.179H138.938ZM138.666 103.11C138.43 102.423 137.521 100.225 136.371 97.44L135.447 97.822C136.608 100.632 137.497 102.786 137.72 103.435L138.666 103.11ZM136.371 97.44C135.052 94.248 133.402 90.253 132.03 86.765L131.099 87.131C132.475 90.628 134.129 94.632 135.447 97.822L136.371 97.44ZM132.031 86.768C129.843 81.1033 128.76 75.3485 129.484 69.373L128.491 69.2527C127.742 75.4312 128.868 81.3538 131.098 87.128L132.031 86.768ZM129.484 69.3685L130.712 58.406L129.718 58.2948L128.49 69.2572L129.484 69.3685ZM115.195 111.963C115.84 110.709 116.347 108.859 116.475 107.491L115.48 107.397C115.362 108.651 114.887 110.375 114.305 111.505L115.195 111.963ZM115.977 107.444C116.475 107.488 116.475 107.488 116.475 107.488C116.476 107.487 116.476 107.487 116.476 107.486C116.476 107.485 116.476 107.484 116.476 107.482C116.476 107.478 116.477 107.472 116.478 107.464C116.479 107.448 116.481 107.424 116.484 107.393C116.489 107.332 116.497 107.24 116.507 107.124C116.528 106.89 116.557 106.553 116.593 106.141C116.664 105.315 116.759 104.187 116.859 102.972C117.059 100.547 117.274 97.766 117.336 96.385L116.337 96.34C116.276 97.699 116.062 100.459 115.863 102.89C115.763 104.103 115.667 105.231 115.596 106.055C115.561 106.467 115.532 106.803 115.511 107.037C115.501 107.153 115.493 107.244 115.488 107.306C115.485 107.337 115.483 107.36 115.481 107.376C115.481 107.384 115.48 107.39 115.48 107.394C115.48 107.396 115.48 107.397 115.479 107.398C115.479 107.399 115.479 107.399 115.479 107.4C115.479 107.4 115.479 107.4 115.977 107.444ZM117.337 96.362C117.337 95.313 116.877 93.688 116.343 92.134C115.8 90.554 115.151 88.963 114.719 87.945L113.799 88.336C114.226 89.344 114.866 90.91 115.397 92.458C115.937 94.032 116.337 95.505 116.337 96.362H117.337ZM114.714 87.934C113.138 84.464 110.42 83.3823 106.7 81.8734L106.324 82.8C110.096 84.3296 112.415 85.291 113.804 88.347L114.714 87.934ZM106.7 81.8734C105.795 81.5062 104.825 81.1129 103.783 80.6528L103.379 81.5677C104.437 82.0347 105.42 82.4334 106.324 82.8L106.7 81.8734ZM103.775 80.6496C102.353 80.0491 99.919 79.1222 97.849 78.3481C96.812 77.9605 95.864 77.6101 95.175 77.3567C94.83 77.23 94.551 77.1275 94.357 77.0566C94.26 77.0212 94.185 76.9937 94.134 76.975C94.108 76.9657 94.089 76.9586 94.075 76.9538C94.069 76.9514 94.064 76.9496 94.06 76.9484C94.059 76.9478 94.058 76.9473 94.057 76.947C94.056 76.9469 94.0561 76.9467 94.0561 76.9467C94.0561 76.9466 94.056 76.9466 94.055 76.9466C94.055 76.9465 94.055 76.9465 93.884 77.4164C93.713 77.8862 93.713 77.8862 93.713 77.8862C93.713 77.8862 93.713 77.8863 93.714 77.8863C93.714 77.8864 93.7141 77.8865 93.7151 77.8866C93.7151 77.8869 93.717 77.8874 93.718 77.888C93.722 77.8892 93.726 77.891 93.733 77.8934C93.746 77.8981 93.765 77.9052 93.791 77.9145C93.842 77.9331 93.917 77.9605 94.013 77.9958C94.207 78.0665 94.486 78.1688 94.83 78.2952C95.518 78.5482 96.464 78.8979 97.499 79.2848C99.571 80.0598 101.986 80.9798 103.386 81.5709L103.775 80.6496ZM94.0511 76.9449C93.5001 76.7505 93.152 76.3998 92.98 75.9874C92.806 75.5695 92.795 75.047 93.002 74.4937L92.066 74.1429C91.782 74.9003 91.772 75.6885 92.057 76.3728C92.346 77.0627 92.918 77.6056 93.718 77.8879L94.0511 76.9449ZM93.002 74.4937C93.184 74.0082 93.602 73.6515 94.14 73.4651C94.681 73.2775 95.295 73.2815 95.79 73.4736L96.152 72.5415C95.419 72.257 94.56 72.261 93.813 72.5203C93.062 72.7806 92.375 73.3176 92.066 74.1429L93.002 74.4937ZM95.808 73.4803C97.869 74.1901 99.8221 74.9354 102.228 75.8537L102.585 74.9194C100.181 74.0022 98.213 73.2509 96.134 72.5348L95.808 73.4803ZM102.228 75.8537C104.245 76.6232 106.576 77.5128 109.546 78.6008L109.89 77.6618C106.927 76.5763 104.601 75.6888 102.585 74.9194L102.228 75.8537ZM109.544 78.6001C111.65 79.3819 113.255 79.5309 114.705 79.2795C116.136 79.0315 117.378 78.3976 118.731 77.7113L118.279 76.8195C116.9 77.5186 115.792 78.0762 114.535 78.2942C113.296 78.5088 111.873 78.3981 109.892 77.6626L109.544 78.6001ZM118.731 77.7113C118.789 77.6824 118.846 77.6533 118.904 77.6241L118.452 76.732C118.394 76.7613 118.336 76.7905 118.279 76.8195L118.731 77.7113ZM118.917 77.6169C119.12 77.5062 119.325 77.3991 119.533 77.2899L119.069 76.404C118.862 76.5124 118.65 76.6236 118.438 76.7392L118.917 77.6169ZM119.533 77.2899C120.403 76.8345 121.346 76.3454 122.115 75.5522C122.901 74.7418 123.481 73.6435 123.714 72.0055L122.724 71.8648C122.518 73.3178 122.02 74.2141 121.397 74.8561C120.758 75.5154 119.962 75.9367 119.069 76.404L119.533 77.2899ZM123.715 71.9953C123.832 71.0357 124.198 68.3228 124.591 65.4147L123.6 65.2809C123.208 68.1835 122.84 70.9066 122.723 71.875L123.715 71.9953ZM124.591 65.4147C125.022 62.2167 125.486 58.7859 125.679 57.221L124.687 57.0983C124.494 58.656 124.032 62.0792 123.6 65.2809L124.591 65.4147ZM110.533 121.252L115.197 111.958L114.303 111.509L109.639 120.804L110.533 121.252Z" fill="#212121"/>
<path d="M135.248 49.4139L129.602 52.2737C128.988 52.512 128.374 52.3928 128.006 51.7971L121.501 39.5239C121.255 38.9281 121.378 38.3323 121.992 37.9748L127.638 35.1151C128.251 34.8768 128.865 34.9959 129.233 35.5917L135.738 47.8649C135.984 48.4607 135.738 49.1756 135.248 49.4139Z" stroke="#212121"/>
<path d="M89.837 90.211C89.716 89.642 90.393 89.251 90.825 89.64L93.132 91.717L95.821 90.165C96.324 89.874 96.906 90.398 96.669 90.929L95.406 93.765L97.714 95.842C98.145 96.231 97.827 96.946 97.249 96.885L94.162 96.56L92.899 99.397C92.663 99.928 91.885 99.846 91.764 99.277L91.118 96.241L88.031 95.916C87.453 95.855 87.29 95.09 87.794 94.8L90.482 93.247L89.837 90.211Z" stroke="black" stroke-opacity="0.435"/>
<path d="M85.164 55.5587C85.194 54.9783 85.95 54.7758 86.266 55.2633L87.957 57.8671L90.956 57.0635C91.517 56.9131 91.943 57.569 91.578 58.0207L89.624 60.4335L91.315 63.0372C91.631 63.5247 91.139 64.1325 90.596 63.9242L87.698 62.8115L85.744 65.2243C85.378 65.676 84.648 65.3958 84.679 64.8153L84.841 61.7149L81.943 60.6023C81.4 60.394 81.441 59.6131 82.002 59.4626L85.001 58.6591L85.164 55.5587Z" stroke="black" stroke-opacity="0.435"/>
<path d="M154.457 62.078C154.774 61.5905 155.529 61.7929 155.56 62.3734L155.722 65.4738L158.721 66.2773C159.282 66.4277 159.323 67.2087 158.781 67.417L155.882 68.5296L156.045 71.63C156.075 72.2104 155.345 72.4907 154.979 72.039L153.026 69.6262L150.127 70.7388C149.584 70.9471 149.092 70.3394 149.409 69.8519L151.1 67.2481L149.146 64.8354C148.78 64.3837 149.206 63.7278 149.768 63.8782L152.766 64.6818L154.457 62.078Z" stroke="black" stroke-opacity="0.435"/>
<path d="M151.034 85.097C151.466 84.7079 152.143 85.099 152.022 85.667L151.377 88.704L154.066 90.257C154.569 90.547 154.406 91.312 153.828 91.373L150.741 91.697L150.095 94.734C149.974 95.303 149.197 95.385 148.96 94.854L147.697 92.017L144.61 92.342C144.032 92.403 143.714 91.688 144.146 91.299L146.453 89.222L145.19 86.386C144.954 85.855 145.535 85.331 146.038 85.622L148.727 87.174L151.034 85.097Z" stroke="black" stroke-opacity="0.435"/>
</svg>
