<svg width="241" height="190" viewBox="0 0 241 190" fill="none" xmlns="http://www.w3.org/2000/svg">
<path d="M113.372 52.3603H108.008L111.363 31.71H116.725L113.372 52.3603Z" fill="#1A1F71"/>
<path d="M132.816 32.2122C131.757 31.7946 130.079 31.3333 128.006 31.3333C122.708 31.3333 118.978 34.1452 118.957 38.1661C118.913 41.1328 121.626 42.7797 123.659 43.7695C125.732 44.7799 126.439 45.4398 126.439 46.3421C126.419 47.7261 124.762 48.3627 123.219 48.3627C121.078 48.3627 119.931 48.0327 118.186 47.2648L117.479 46.9348L116.728 51.5718C117.986 52.1412 120.303 52.6492 122.711 52.6697C128.34 52.6697 132.003 49.9015 132.047 45.6179C132.068 43.2673 130.636 41.4656 127.545 39.994C125.668 39.0479 124.521 38.4113 124.521 37.4448C124.542 36.5659 125.492 35.6665 127.61 35.6665C129.355 35.6227 130.634 36.0403 131.604 36.4579L132.088 36.6769L132.816 32.2122Z" fill="#1A1F71"/>
<path d="M139.943 45.0427C140.386 43.8572 142.084 39.2641 142.084 39.2641C142.06 39.3079 142.524 38.0552 142.791 37.2872L143.166 39.0655C143.166 39.0655 144.181 44.0091 144.401 45.0427C143.562 45.0427 141.002 45.0427 139.943 45.0427ZM146.566 31.71H142.415C141.136 31.71 140.163 32.0838 139.611 33.424L131.645 52.3632H137.274C137.274 52.3632 138.201 49.814 138.4 49.2651C139.016 49.2651 144.492 49.2651 145.287 49.2651C145.439 49.9892 145.926 52.3632 145.926 52.3632H150.892L146.566 31.71Z" fill="#1A1F71"/>
<path d="M103.527 31.71L98.276 45.7903L97.702 42.9345C96.731 39.6407 93.683 36.0579 90.287 34.2796L95.097 52.3398H100.769L109.199 31.71H103.527Z" fill="#1A1F71"/>
<path d="M93.399 31.71H84.767L84.679 32.1276C91.41 33.8416 95.868 37.9734 97.701 42.9374L95.824 33.4474C95.516 32.1246 94.566 31.7509 93.399 31.71Z" fill="#1A1F71"/>
<path d="M119.651 119.1C123.065 119.1 125.832 113.235 125.832 106C125.832 98.765 123.065 92.9 119.651 92.9C116.238 92.9 113.471 98.765 113.471 106C113.471 113.235 116.238 119.1 119.651 119.1Z" fill="#FF5F00"/>
<path d="M113.47 106C113.47 100.683 115.881 95.95 119.651 92.9C116.901 90.667 113.422 89.333 109.652 89.333C100.721 89.333 93.472 96.8 93.472 106C93.472 115.2 100.721 122.667 109.652 122.667C113.422 122.667 116.901 121.333 119.651 119.1C115.881 116.05 113.47 111.317 113.47 106Z" fill="#EB001B"/>
<path d="M129.65 89.333C125.88 89.333 122.402 90.667 119.651 92.9C123.421 95.95 125.832 100.683 125.832 106C125.832 111.317 123.421 116.05 119.651 119.1C122.402 121.333 125.88 122.667 129.65 122.667C138.582 122.667 145.83 115.2 145.83 106C145.83 96.8 138.582 89.333 129.65 89.333Z" fill="#F79E1B"/>
<path d="M103.87 159.333V159.343C103.86 159.343 100.936 159.333 100.157 162.138C99.442 164.71 97.428 171.808 97.372 172.004H96.815C96.815 172.004 94.754 164.747 94.03 162.129C93.251 159.324 90.317 159.333 90.317 159.333H83.641V180.667H90.321V167.996H90.878L94.776 180.667H99.414L103.313 168.006H103.87V180.667H110.55V159.333H103.87ZM128.273 159.333C128.273 159.333 126.314 159.51 125.395 161.57L120.664 172.004H120.107V159.333H113.427V180.667H119.736C119.736 180.667 121.787 180.48 122.706 178.43L127.344 167.996H127.901V180.667H134.581V159.333H128.273ZM137.552 169.022V180.667H144.232V173.867H151.469C154.625 173.867 157.295 171.845 158.288 169.025H137.552V169.022Z" fill="#4DB45E"/>
<path d="M151.472 159.333H136.614C137.356 163.396 140.392 166.655 144.315 167.717C145.226 167.965 146.165 168.09 147.109 168.09H158.56C158.662 167.605 158.709 167.111 158.709 166.599C158.708 162.585 155.469 159.333 151.472 159.333Z" fill="url(#paint0_linear)"/>
<defs>
<linearGradient id="paint0_linear" x1="136.613" y1="163.713" x2="158.707" y2="163.713" gradientUnits="userSpaceOnUse">
<stop offset="0.3" stop-color="#00B4E6"/>
<stop offset="1" stop-color="#088CCB"/>
</linearGradient>
</defs>
</svg>
