<svg width="240" height="200" viewBox="0 0 240 200" fill="none" xmlns="http://www.w3.org/2000/svg">
<path d="M220 1H20C9.50659 1 1 9.50659 1 20V180C1 190.493 9.50659 199 20 199H220C230.493 199 239 190.493 239 180V20C239 9.50659 230.493 1 220 1Z" fill="white" stroke="#FFCD17" stroke-width="2"/>
<path d="M23.5469 165H22.416V161.057H18.1152V165H16.9902V156.469H18.1152V160.137H22.416V156.469H23.5469V165ZM25.2879 161.771C25.2879 161.15 25.409 160.592 25.6512 160.096C25.8973 159.6 26.2371 159.217 26.6707 158.947C27.1082 158.678 27.6062 158.543 28.1648 158.543C29.0281 158.543 29.7254 158.842 30.2566 159.439C30.7918 160.037 31.0594 160.832 31.0594 161.824V161.9C31.0594 162.518 30.9402 163.072 30.702 163.564C30.4676 164.053 30.1297 164.434 29.6883 164.707C29.2508 164.98 28.7469 165.117 28.1766 165.117C27.3172 165.117 26.6199 164.818 26.0848 164.221C25.5535 163.623 25.2879 162.832 25.2879 161.848V161.771ZM26.3777 161.9C26.3777 162.604 26.5398 163.168 26.8641 163.594C27.1922 164.02 27.6297 164.232 28.1766 164.232C28.7273 164.232 29.1648 164.018 29.4891 163.588C29.8133 163.154 29.9754 162.549 29.9754 161.771C29.9754 161.076 29.8094 160.514 29.4773 160.084C29.1492 159.65 28.7117 159.434 28.1648 159.434C27.6297 159.434 27.198 159.646 26.8699 160.072C26.5418 160.498 26.3777 161.107 26.3777 161.9ZM36.2691 163.564L38.4254 158.66H39.7789V165H38.6949V160.389L36.6441 165H35.8941L33.8023 160.289V165H32.7184V158.66H34.1246L36.2691 163.564ZM44.3559 165.117C43.4965 165.117 42.7973 164.836 42.2582 164.273C41.7191 163.707 41.4496 162.951 41.4496 162.006V161.807C41.4496 161.178 41.5688 160.617 41.807 160.125C42.0492 159.629 42.3852 159.242 42.8148 158.965C43.2484 158.684 43.7172 158.543 44.2211 158.543C45.0453 158.543 45.6859 158.814 46.143 159.357C46.6 159.9 46.8285 160.678 46.8285 161.689V162.141H42.5336C42.5492 162.766 42.7309 163.271 43.0785 163.658C43.4301 164.041 43.8754 164.232 44.4145 164.232C44.7973 164.232 45.1215 164.154 45.3871 163.998C45.6527 163.842 45.8852 163.635 46.0844 163.377L46.7465 163.893C46.2152 164.709 45.4184 165.117 44.3559 165.117ZM44.2211 159.434C43.7836 159.434 43.4164 159.594 43.1195 159.914C42.8227 160.23 42.6391 160.676 42.5688 161.25H45.7445V161.168C45.7133 160.617 45.5648 160.191 45.2992 159.891C45.0336 159.586 44.6742 159.434 44.2211 159.434ZM53.6437 161.9C53.6437 162.865 53.423 163.643 52.9816 164.232C52.5402 164.822 51.9426 165.117 51.1887 165.117C50.4191 165.117 49.8137 164.873 49.3723 164.385V167.438H48.2883V158.66H49.2785L49.3312 159.363C49.7727 158.816 50.3859 158.543 51.1711 158.543C51.9328 158.543 52.5344 158.83 52.9758 159.404C53.4211 159.979 53.6437 160.777 53.6437 161.801V161.9ZM52.5598 161.777C52.5598 161.062 52.4074 160.498 52.1027 160.084C51.798 159.67 51.3801 159.463 50.8488 159.463C50.1926 159.463 49.7004 159.754 49.3723 160.336V163.365C49.6965 163.943 50.1926 164.232 50.8605 164.232C51.3801 164.232 51.7922 164.027 52.0969 163.617C52.4055 163.203 52.5598 162.59 52.5598 161.777ZM61.1863 159.023C61.9832 159.023 62.6199 159.291 63.0965 159.826C63.577 160.357 63.8172 161.059 63.8172 161.93V162.029C63.8172 162.627 63.702 163.162 63.4715 163.635C63.241 164.104 62.909 164.469 62.4754 164.73C62.0457 164.988 61.5496 165.117 60.9871 165.117C60.1355 165.117 59.45 164.834 58.9305 164.268C58.4109 163.697 58.1512 162.934 58.1512 161.977V161.449C58.1512 160.117 58.3973 159.059 58.8895 158.273C59.3855 157.488 60.116 157.01 61.0809 156.838C61.6277 156.74 61.9969 156.621 62.1883 156.48C62.3797 156.34 62.4754 156.146 62.4754 155.9H63.366C63.366 156.389 63.2547 156.77 63.032 157.043C62.8133 157.316 62.4617 157.51 61.9773 157.623L61.1688 157.805C60.5242 157.957 60.0398 158.215 59.7156 158.578C59.3953 158.938 59.1863 159.418 59.0887 160.02C59.6629 159.355 60.3621 159.023 61.1863 159.023ZM60.9754 159.914C60.4441 159.914 60.0223 160.094 59.7098 160.453C59.3973 160.809 59.241 161.303 59.241 161.936V162.029C59.241 162.709 59.3973 163.248 59.7098 163.646C60.0262 164.041 60.452 164.238 60.9871 164.238C61.5262 164.238 61.952 164.039 62.2645 163.641C62.577 163.242 62.7332 162.66 62.7332 161.895C62.7332 161.297 62.575 160.818 62.2586 160.459C61.9461 160.096 61.5184 159.914 60.9754 159.914ZM69.232 158.66H70.316V165H69.232V160.377L66.3082 165H65.2242V158.66H66.3082V163.289L69.232 158.66ZM77.4535 158.66V165H76.3637V159.557H74.2074L74.0785 161.93C74.0082 163.02 73.8246 163.799 73.5277 164.268C73.2348 164.736 72.768 164.98 72.1273 165H71.6937V164.045L72.0043 164.021C72.3559 163.982 72.6078 163.779 72.7602 163.412C72.9125 163.045 73.0102 162.365 73.0531 161.373L73.1703 158.66H77.4535ZM82.0246 165.117C81.1652 165.117 80.466 164.836 79.927 164.273C79.3879 163.707 79.1184 162.951 79.1184 162.006V161.807C79.1184 161.178 79.2375 160.617 79.4758 160.125C79.718 159.629 80.0539 159.242 80.4836 158.965C80.9172 158.684 81.3859 158.543 81.8898 158.543C82.7141 158.543 83.3547 158.814 83.8117 159.357C84.2687 159.9 84.4973 160.678 84.4973 161.689V162.141H80.2023C80.218 162.766 80.3996 163.271 80.7473 163.658C81.0988 164.041 81.5441 164.232 82.0832 164.232C82.466 164.232 82.7902 164.154 83.0559 163.998C83.3215 163.842 83.5539 163.635 83.7531 163.377L84.4152 163.893C83.884 164.709 83.0871 165.117 82.0246 165.117ZM81.8898 159.434C81.4523 159.434 81.0852 159.594 80.7883 159.914C80.4914 160.23 80.3078 160.676 80.2375 161.25H83.4133V161.168C83.382 160.617 83.2336 160.191 82.968 159.891C82.7023 159.586 82.343 159.434 81.8898 159.434ZM90.5977 159.539H88.4707V165H87.3867V159.539H85.3008V158.66H90.5977V159.539ZM95.6727 165C95.6102 164.875 95.5594 164.652 95.5203 164.332C95.0164 164.855 94.4148 165.117 93.7156 165.117C93.0906 165.117 92.577 164.941 92.1746 164.59C91.7762 164.234 91.577 163.785 91.577 163.242C91.577 162.582 91.827 162.07 92.327 161.707C92.8309 161.34 93.5379 161.156 94.448 161.156H95.5027V160.658C95.5027 160.279 95.3895 159.979 95.1629 159.756C94.9363 159.529 94.6023 159.416 94.1609 159.416C93.7742 159.416 93.45 159.514 93.1883 159.709C92.9266 159.904 92.7957 160.141 92.7957 160.418H91.7059C91.7059 160.102 91.8172 159.797 92.0398 159.504C92.2664 159.207 92.5711 158.973 92.9539 158.801C93.3406 158.629 93.7645 158.543 94.2254 158.543C94.9559 158.543 95.5281 158.727 95.9422 159.094C96.3562 159.457 96.5711 159.959 96.5867 160.6V163.518C96.5867 164.1 96.6609 164.562 96.8094 164.906V165H95.6727ZM93.8738 164.174C94.2137 164.174 94.5359 164.086 94.8406 163.91C95.1453 163.734 95.366 163.506 95.5027 163.225V161.924H94.6531C93.325 161.924 92.6609 162.312 92.6609 163.09C92.6609 163.43 92.7742 163.695 93.0008 163.887C93.2273 164.078 93.5184 164.174 93.8738 164.174ZM20.8633 177.25C20.6367 177.52 20.3652 177.736 20.0488 177.9C19.7363 178.064 19.3926 178.146 19.0176 178.146C18.5254 178.146 18.0957 178.025 17.7285 177.783C17.3652 177.541 17.084 177.201 16.8848 176.764C16.6855 176.322 16.5859 175.836 16.5859 175.305C16.5859 174.734 16.6934 174.221 16.9082 173.764C17.127 173.307 17.4355 172.957 17.834 172.715C18.2324 172.473 18.6973 172.352 19.2285 172.352C20.0723 172.352 20.7363 172.668 21.2207 173.301C21.709 173.93 21.9531 174.789 21.9531 175.879V176.195C21.9531 177.855 21.625 179.068 20.9688 179.834C20.3125 180.596 19.3223 180.986 17.998 181.006H17.7871V180.092H18.0156C18.9102 180.076 19.5977 179.844 20.0781 179.395C20.5586 178.941 20.8203 178.227 20.8633 177.25ZM19.1934 177.25C19.5566 177.25 19.8906 177.139 20.1953 176.916C20.5039 176.693 20.7285 176.418 20.8691 176.09V175.656C20.8691 174.945 20.7148 174.367 20.4062 173.922C20.0977 173.477 19.707 173.254 19.2344 173.254C18.7578 173.254 18.375 173.438 18.0859 173.805C17.7969 174.168 17.6523 174.648 17.6523 175.246C17.6523 175.828 17.791 176.309 18.0684 176.688C18.3496 177.062 18.7246 177.25 19.1934 177.25ZM27.8016 177.25C27.575 177.52 27.3035 177.736 26.9871 177.9C26.6746 178.064 26.3309 178.146 25.9559 178.146C25.4637 178.146 25.034 178.025 24.6668 177.783C24.3035 177.541 24.0223 177.201 23.823 176.764C23.6238 176.322 23.5242 175.836 23.5242 175.305C23.5242 174.734 23.6316 174.221 23.8465 173.764C24.0652 173.307 24.3738 172.957 24.7723 172.715C25.1707 172.473 25.6355 172.352 26.1668 172.352C27.0105 172.352 27.6746 172.668 28.159 173.301C28.6473 173.93 28.8914 174.789 28.8914 175.879V176.195C28.8914 177.855 28.5633 179.068 27.907 179.834C27.2508 180.596 26.2605 180.986 24.9363 181.006H24.7254V180.092H24.9539C25.8484 180.076 26.5359 179.844 27.0164 179.395C27.4969 178.941 27.7586 178.227 27.8016 177.25ZM26.1316 177.25C26.4949 177.25 26.8289 177.139 27.1336 176.916C27.4422 176.693 27.6668 176.418 27.8074 176.09V175.656C27.8074 174.945 27.6531 174.367 27.3445 173.922C27.0359 173.477 26.6453 173.254 26.1727 173.254C25.6961 173.254 25.3133 173.438 25.0242 173.805C24.7352 174.168 24.5906 174.648 24.5906 175.246C24.5906 175.828 24.7293 176.309 25.0066 176.688C25.2879 177.062 25.6629 177.25 26.1316 177.25ZM34.7398 177.25C34.5133 177.52 34.2418 177.736 33.9254 177.9C33.6129 178.064 33.2691 178.146 32.8941 178.146C32.402 178.146 31.9723 178.025 31.6051 177.783C31.2418 177.541 30.9605 177.201 30.7613 176.764C30.5621 176.322 30.4625 175.836 30.4625 175.305C30.4625 174.734 30.5699 174.221 30.7848 173.764C31.0035 173.307 31.3121 172.957 31.7105 172.715C32.109 172.473 32.5738 172.352 33.1051 172.352C33.9488 172.352 34.6129 172.668 35.0973 173.301C35.5855 173.93 35.8297 174.789 35.8297 175.879V176.195C35.8297 177.855 35.5016 179.068 34.8453 179.834C34.1891 180.596 33.1988 180.986 31.8746 181.006H31.6637V180.092H31.8922C32.7867 180.076 33.4742 179.844 33.9547 179.395C34.4352 178.941 34.6969 178.227 34.7398 177.25ZM33.0699 177.25C33.4332 177.25 33.7672 177.139 34.0719 176.916C34.3805 176.693 34.6051 176.418 34.7457 176.09V175.656C34.7457 174.945 34.5914 174.367 34.2828 173.922C33.9742 173.477 33.5836 173.254 33.1109 173.254C32.6344 173.254 32.2516 173.438 31.9625 173.805C31.6734 174.168 31.5289 174.648 31.5289 175.246C31.5289 175.828 31.6676 176.309 31.9449 176.688C32.2262 177.062 32.6012 177.25 33.0699 177.25ZM41.6781 177.25C41.4516 177.52 41.1801 177.736 40.8637 177.9C40.5512 178.064 40.2074 178.146 39.8324 178.146C39.3402 178.146 38.9105 178.025 38.5434 177.783C38.1801 177.541 37.8988 177.201 37.6996 176.764C37.5004 176.322 37.4008 175.836 37.4008 175.305C37.4008 174.734 37.5082 174.221 37.723 173.764C37.9418 173.307 38.2504 172.957 38.6488 172.715C39.0473 172.473 39.5121 172.352 40.0434 172.352C40.8871 172.352 41.5512 172.668 42.0355 173.301C42.5238 173.93 42.768 174.789 42.768 175.879V176.195C42.768 177.855 42.4398 179.068 41.7836 179.834C41.1273 180.596 40.1371 180.986 38.8129 181.006H38.602V180.092H38.8305C39.725 180.076 40.4125 179.844 40.893 179.395C41.3734 178.941 41.6352 178.227 41.6781 177.25ZM40.0082 177.25C40.3715 177.25 40.7055 177.139 41.0102 176.916C41.3188 176.693 41.5434 176.418 41.684 176.09V175.656C41.684 174.945 41.5297 174.367 41.2211 173.922C40.9125 173.477 40.5219 173.254 40.0492 173.254C39.5727 173.254 39.1898 173.438 38.9008 173.805C38.6117 174.168 38.4672 174.648 38.4672 175.246C38.4672 175.828 38.6059 176.309 38.8832 176.688C39.1645 177.062 39.5395 177.25 40.0082 177.25ZM51.793 177.25C51.5664 177.52 51.2949 177.736 50.9785 177.9C50.666 178.064 50.3223 178.146 49.9473 178.146C49.4551 178.146 49.0254 178.025 48.6582 177.783C48.2949 177.541 48.0137 177.201 47.8145 176.764C47.6152 176.322 47.5156 175.836 47.5156 175.305C47.5156 174.734 47.623 174.221 47.8379 173.764C48.0566 173.307 48.3652 172.957 48.7637 172.715C49.1621 172.473 49.627 172.352 50.1582 172.352C51.002 172.352 51.666 172.668 52.1504 173.301C52.6387 173.93 52.8828 174.789 52.8828 175.879V176.195C52.8828 177.855 52.5547 179.068 51.8984 179.834C51.2422 180.596 50.252 180.986 48.9277 181.006H48.7168V180.092H48.9453C49.8398 180.076 50.5273 179.844 51.0078 179.395C51.4883 178.941 51.75 178.227 51.793 177.25ZM50.123 177.25C50.4863 177.25 50.8203 177.139 51.125 176.916C51.4336 176.693 51.6582 176.418 51.7988 176.09V175.656C51.7988 174.945 51.6445 174.367 51.3359 173.922C51.0273 173.477 50.6367 173.254 50.1641 173.254C49.6875 173.254 49.3047 173.438 49.0156 173.805C48.7266 174.168 48.582 174.648 48.582 175.246C48.582 175.828 48.7207 176.309 48.998 176.688C49.2793 177.062 49.6543 177.25 50.123 177.25ZM58.7313 177.25C58.5047 177.52 58.2332 177.736 57.9168 177.9C57.6043 178.064 57.2605 178.146 56.8855 178.146C56.3934 178.146 55.9637 178.025 55.5965 177.783C55.2332 177.541 54.952 177.201 54.7527 176.764C54.5535 176.322 54.4539 175.836 54.4539 175.305C54.4539 174.734 54.5613 174.221 54.7762 173.764C54.9949 173.307 55.3035 172.957 55.702 172.715C56.1004 172.473 56.5652 172.352 57.0965 172.352C57.9402 172.352 58.6043 172.668 59.0887 173.301C59.577 173.93 59.8211 174.789 59.8211 175.879V176.195C59.8211 177.855 59.493 179.068 58.8367 179.834C58.1805 180.596 57.1902 180.986 55.866 181.006H55.6551V180.092H55.8836C56.7781 180.076 57.4656 179.844 57.9461 179.395C58.4266 178.941 58.6883 178.227 58.7313 177.25ZM57.0613 177.25C57.4246 177.25 57.7586 177.139 58.0633 176.916C58.3719 176.693 58.5965 176.418 58.7371 176.09V175.656C58.7371 174.945 58.5828 174.367 58.2742 173.922C57.9656 173.477 57.575 173.254 57.1023 173.254C56.6258 173.254 56.243 173.438 55.9539 173.805C55.6648 174.168 55.5203 174.648 55.5203 175.246C55.5203 175.828 55.659 176.309 55.9363 176.688C56.2176 177.062 56.5926 177.25 57.0613 177.25ZM65.6695 177.25C65.443 177.52 65.1715 177.736 64.8551 177.9C64.5426 178.064 64.1988 178.146 63.8238 178.146C63.3316 178.146 62.902 178.025 62.5348 177.783C62.1715 177.541 61.8902 177.201 61.691 176.764C61.4918 176.322 61.3922 175.836 61.3922 175.305C61.3922 174.734 61.4996 174.221 61.7145 173.764C61.9332 173.307 62.2418 172.957 62.6402 172.715C63.0387 172.473 63.5035 172.352 64.0348 172.352C64.8785 172.352 65.5426 172.668 66.027 173.301C66.5152 173.93 66.7594 174.789 66.7594 175.879V176.195C66.7594 177.855 66.4313 179.068 65.775 179.834C65.1188 180.596 64.1285 180.986 62.8043 181.006H62.5934V180.092H62.8219C63.7164 180.076 64.4039 179.844 64.8844 179.395C65.3648 178.941 65.6266 178.227 65.6695 177.25ZM63.9996 177.25C64.3629 177.25 64.6969 177.139 65.0016 176.916C65.3102 176.693 65.5348 176.418 65.6754 176.09V175.656C65.6754 174.945 65.5211 174.367 65.2125 173.922C64.9039 173.477 64.5133 173.254 64.0406 173.254C63.5641 173.254 63.1813 173.438 62.8922 173.805C62.6031 174.168 62.4586 174.648 62.4586 175.246C62.4586 175.828 62.5973 176.309 62.8746 176.688C63.1559 177.062 63.5309 177.25 63.9996 177.25ZM72.6078 177.25C72.3812 177.52 72.1098 177.736 71.7934 177.9C71.4809 178.064 71.1371 178.146 70.7621 178.146C70.2699 178.146 69.8402 178.025 69.473 177.783C69.1098 177.541 68.8285 177.201 68.6293 176.764C68.4301 176.322 68.3305 175.836 68.3305 175.305C68.3305 174.734 68.4379 174.221 68.6527 173.764C68.8715 173.307 69.1801 172.957 69.5785 172.715C69.977 172.473 70.4418 172.352 70.973 172.352C71.8168 172.352 72.4809 172.668 72.9652 173.301C73.4535 173.93 73.6977 174.789 73.6977 175.879V176.195C73.6977 177.855 73.3695 179.068 72.7133 179.834C72.057 180.596 71.0668 180.986 69.7426 181.006H69.5316V180.092H69.7602C70.6547 180.076 71.3422 179.844 71.8227 179.395C72.3031 178.941 72.5648 178.227 72.6078 177.25ZM70.9379 177.25C71.3012 177.25 71.6352 177.139 71.9398 176.916C72.2484 176.693 72.473 176.418 72.6137 176.09V175.656C72.6137 174.945 72.4594 174.367 72.1508 173.922C71.8422 173.477 71.4516 173.254 70.9789 173.254C70.5023 173.254 70.1195 173.438 69.8305 173.805C69.5414 174.168 69.3969 174.648 69.3969 175.246C69.3969 175.828 69.5355 176.309 69.8129 176.688C70.0941 177.062 70.4691 177.25 70.9379 177.25ZM82.7227 177.25C82.4961 177.52 82.2246 177.736 81.9082 177.9C81.5957 178.064 81.252 178.146 80.877 178.146C80.3848 178.146 79.9551 178.025 79.5879 177.783C79.2246 177.541 78.9434 177.201 78.7441 176.764C78.5449 176.322 78.4453 175.836 78.4453 175.305C78.4453 174.734 78.5527 174.221 78.7676 173.764C78.9863 173.307 79.2949 172.957 79.6934 172.715C80.0918 172.473 80.5566 172.352 81.0879 172.352C81.9316 172.352 82.5957 172.668 83.0801 173.301C83.5684 173.93 83.8125 174.789 83.8125 175.879V176.195C83.8125 177.855 83.4844 179.068 82.8281 179.834C82.1719 180.596 81.1816 180.986 79.8574 181.006H79.6465V180.092H79.875C80.7695 180.076 81.457 179.844 81.9375 179.395C82.418 178.941 82.6797 178.227 82.7227 177.25ZM81.0527 177.25C81.416 177.25 81.75 177.139 82.0547 176.916C82.3633 176.693 82.5879 176.418 82.7285 176.09V175.656C82.7285 174.945 82.5742 174.367 82.2656 173.922C81.957 173.477 81.5664 173.254 81.0938 173.254C80.6172 173.254 80.2344 173.438 79.9453 173.805C79.6562 174.168 79.5117 174.648 79.5117 175.246C79.5117 175.828 79.6504 176.309 79.9277 176.688C80.209 177.062 80.584 177.25 81.0527 177.25ZM89.6609 177.25C89.4344 177.52 89.1629 177.736 88.8465 177.9C88.534 178.064 88.1902 178.146 87.8152 178.146C87.323 178.146 86.8934 178.025 86.5262 177.783C86.1629 177.541 85.8816 177.201 85.6824 176.764C85.4832 176.322 85.3836 175.836 85.3836 175.305C85.3836 174.734 85.491 174.221 85.7059 173.764C85.9246 173.307 86.2332 172.957 86.6316 172.715C87.0301 172.473 87.4949 172.352 88.0262 172.352C88.8699 172.352 89.534 172.668 90.0184 173.301C90.5066 173.93 90.7508 174.789 90.7508 175.879V176.195C90.7508 177.855 90.4227 179.068 89.7664 179.834C89.1102 180.596 88.1199 180.986 86.7957 181.006H86.5848V180.092H86.8133C87.7078 180.076 88.3953 179.844 88.8758 179.395C89.3562 178.941 89.618 178.227 89.6609 177.25ZM87.991 177.25C88.3543 177.25 88.6883 177.139 88.993 176.916C89.3016 176.693 89.5262 176.418 89.6668 176.09V175.656C89.6668 174.945 89.5125 174.367 89.2039 173.922C88.8953 173.477 88.5047 173.254 88.032 173.254C87.5555 173.254 87.1727 173.438 86.8836 173.805C86.5945 174.168 86.45 174.648 86.45 175.246C86.45 175.828 86.5887 176.309 86.866 176.688C87.1473 177.062 87.5223 177.25 87.991 177.25ZM96.5992 177.25C96.3727 177.52 96.1012 177.736 95.7848 177.9C95.4723 178.064 95.1285 178.146 94.7535 178.146C94.2613 178.146 93.8316 178.025 93.4645 177.783C93.1012 177.541 92.8199 177.201 92.6207 176.764C92.4215 176.322 92.3219 175.836 92.3219 175.305C92.3219 174.734 92.4293 174.221 92.6441 173.764C92.8629 173.307 93.1715 172.957 93.5699 172.715C93.9684 172.473 94.4332 172.352 94.9645 172.352C95.8082 172.352 96.4723 172.668 96.9566 173.301C97.4449 173.93 97.6891 174.789 97.6891 175.879V176.195C97.6891 177.855 97.3609 179.068 96.7047 179.834C96.0484 180.596 95.0582 180.986 93.734 181.006H93.523V180.092H93.7516C94.6461 180.076 95.3336 179.844 95.8141 179.395C96.2945 178.941 96.5563 178.227 96.5992 177.25ZM94.9293 177.25C95.2926 177.25 95.6266 177.139 95.9313 176.916C96.2398 176.693 96.4645 176.418 96.6051 176.09V175.656C96.6051 174.945 96.4508 174.367 96.1422 173.922C95.8336 173.477 95.443 173.254 94.9703 173.254C94.4938 173.254 94.1109 173.438 93.8219 173.805C93.5328 174.168 93.3883 174.648 93.3883 175.246C93.3883 175.828 93.527 176.309 93.8043 176.688C94.0855 177.062 94.4605 177.25 94.9293 177.25ZM103.537 177.25C103.311 177.52 103.039 177.736 102.723 177.9C102.411 178.064 102.067 178.146 101.692 178.146C101.2 178.146 100.77 178.025 100.403 177.783C100.039 177.541 99.7582 177.201 99.559 176.764C99.3598 176.322 99.2602 175.836 99.2602 175.305C99.2602 174.734 99.3676 174.221 99.5824 173.764C99.8012 173.307 100.11 172.957 100.508 172.715C100.907 172.473 101.371 172.352 101.903 172.352C102.746 172.352 103.411 172.668 103.895 173.301C104.383 173.93 104.627 174.789 104.627 175.879V176.195C104.627 177.855 104.299 179.068 103.643 179.834C102.987 180.596 101.996 180.986 100.672 181.006H100.461V180.092H100.69C101.584 180.076 102.272 179.844 102.752 179.395C103.233 178.941 103.495 178.227 103.537 177.25ZM101.868 177.25C102.231 177.25 102.565 177.139 102.87 176.916C103.178 176.693 103.403 176.418 103.543 176.09V175.656C103.543 174.945 103.389 174.367 103.08 173.922C102.772 173.477 102.381 173.254 101.909 173.254C101.432 173.254 101.049 173.438 100.76 173.805C100.471 174.168 100.327 174.648 100.327 175.246C100.327 175.828 100.465 176.309 100.743 176.688C101.024 177.062 101.399 177.25 101.868 177.25ZM113.652 177.25C113.426 177.52 113.154 177.736 112.838 177.9C112.525 178.064 112.182 178.146 111.807 178.146C111.314 178.146 110.885 178.025 110.518 177.783C110.154 177.541 109.873 177.201 109.674 176.764C109.475 176.322 109.375 175.836 109.375 175.305C109.375 174.734 109.482 174.221 109.697 173.764C109.916 173.307 110.225 172.957 110.623 172.715C111.021 172.473 111.486 172.352 112.018 172.352C112.861 172.352 113.525 172.668 114.01 173.301C114.498 173.93 114.742 174.789 114.742 175.879V176.195C114.742 177.855 114.414 179.068 113.758 179.834C113.102 180.596 112.111 180.986 110.787 181.006H110.576V180.092H110.805C111.699 180.076 112.387 179.844 112.867 179.395C113.348 178.941 113.609 178.227 113.652 177.25ZM111.982 177.25C112.346 177.25 112.68 177.139 112.984 176.916C113.293 176.693 113.518 176.418 113.658 176.09V175.656C113.658 174.945 113.504 174.367 113.195 173.922C112.887 173.477 112.496 173.254 112.023 173.254C111.547 173.254 111.164 173.438 110.875 173.805C110.586 174.168 110.441 174.648 110.441 175.246C110.441 175.828 110.58 176.309 110.857 176.688C111.139 177.062 111.514 177.25 111.982 177.25ZM120.591 177.25C120.364 177.52 120.093 177.736 119.776 177.9C119.464 178.064 119.12 178.146 118.745 178.146C118.253 178.146 117.823 178.025 117.456 177.783C117.093 177.541 116.811 177.201 116.612 176.764C116.413 176.322 116.313 175.836 116.313 175.305C116.313 174.734 116.421 174.221 116.636 173.764C116.854 173.307 117.163 172.957 117.561 172.715C117.96 172.473 118.425 172.352 118.956 172.352C119.8 172.352 120.464 172.668 120.948 173.301C121.436 173.93 121.68 174.789 121.68 175.879V176.195C121.68 177.855 121.352 179.068 120.696 179.834C120.04 180.596 119.05 180.986 117.725 181.006H117.514V180.092H117.743C118.637 180.076 119.325 179.844 119.805 179.395C120.286 178.941 120.548 178.227 120.591 177.25ZM118.921 177.25C119.284 177.25 119.618 177.139 119.923 176.916C120.231 176.693 120.456 176.418 120.596 176.09V175.656C120.596 174.945 120.442 174.367 120.134 173.922C119.825 173.477 119.434 173.254 118.962 173.254C118.485 173.254 118.102 173.438 117.813 173.805C117.524 174.168 117.38 174.648 117.38 175.246C117.38 175.828 117.518 176.309 117.796 176.688C118.077 177.062 118.452 177.25 118.921 177.25ZM127.529 177.25C127.302 177.52 127.031 177.736 126.714 177.9C126.402 178.064 126.058 178.146 125.683 178.146C125.191 178.146 124.761 178.025 124.394 177.783C124.031 177.541 123.75 177.201 123.55 176.764C123.351 176.322 123.252 175.836 123.252 175.305C123.252 174.734 123.359 174.221 123.574 173.764C123.793 173.307 124.101 172.957 124.5 172.715C124.898 172.473 125.363 172.352 125.894 172.352C126.738 172.352 127.402 172.668 127.886 173.301C128.375 173.93 128.619 174.789 128.619 175.879V176.195C128.619 177.855 128.291 179.068 127.634 179.834C126.978 180.596 125.988 180.986 124.664 181.006H124.453V180.092H124.681C125.576 180.076 126.263 179.844 126.744 179.395C127.224 178.941 127.486 178.227 127.529 177.25ZM125.859 177.25C126.222 177.25 126.556 177.139 126.861 176.916C127.17 176.693 127.394 176.418 127.535 176.09V175.656C127.535 174.945 127.38 174.367 127.072 173.922C126.763 173.477 126.373 173.254 125.9 173.254C125.423 173.254 125.041 173.438 124.752 173.805C124.463 174.168 124.318 174.648 124.318 175.246C124.318 175.828 124.457 176.309 124.734 176.688C125.015 177.062 125.39 177.25 125.859 177.25ZM134.467 177.25C134.241 177.52 133.969 177.736 133.653 177.9C133.34 178.064 132.996 178.146 132.621 178.146C132.129 178.146 131.7 178.025 131.332 177.783C130.969 177.541 130.688 177.201 130.489 176.764C130.289 176.322 130.19 175.836 130.19 175.305C130.19 174.734 130.297 174.221 130.512 173.764C130.731 173.307 131.039 172.957 131.438 172.715C131.836 172.473 132.301 172.352 132.832 172.352C133.676 172.352 134.34 172.668 134.825 173.301C135.313 173.93 135.557 174.789 135.557 175.879V176.195C135.557 177.855 135.229 179.068 134.573 179.834C133.916 180.596 132.926 180.986 131.602 181.006H131.391V180.092H131.62C132.514 180.076 133.202 179.844 133.682 179.395C134.162 178.941 134.424 178.227 134.467 177.25ZM132.797 177.25C133.161 177.25 133.495 177.139 133.799 176.916C134.108 176.693 134.332 176.418 134.473 176.09V175.656C134.473 174.945 134.319 174.367 134.01 173.922C133.702 173.477 133.311 173.254 132.838 173.254C132.362 173.254 131.979 173.438 131.69 173.805C131.401 174.168 131.256 174.648 131.256 175.246C131.256 175.828 131.395 176.309 131.672 176.688C131.954 177.062 132.329 177.25 132.797 177.25Z" fill="#C8C8C8"/>
<path d="M16.5 28.8C16.5 26.5515 16.5004 24.8953 16.6073 23.5863C16.7138 22.2832 16.9234 21.3685 17.3175 20.5951C18.0365 19.1839 19.1839 18.0365 20.5951 17.3175C21.3685 16.9234 22.2832 16.7138 23.5863 16.6073C24.8953 16.5004 26.5515 16.5 28.8 16.5H39.3379V35.6842H16.5V28.8Z" stroke="#F1F1F1"/>
<path d="M153.943 16.5H131.105V35.6842H153.943V16.5Z" stroke="#F1F1F1"/>
<path d="M62.2587 16.5H39.4208V35.6842H62.2587V16.5Z" stroke="#F1F1F1"/>
<path d="M176.864 16.5H154.026V35.6842H176.864V16.5Z" stroke="#F1F1F1"/>
<path d="M85.1802 16.5H62.3423V35.6842H85.1802V16.5Z" stroke="#F1F1F1"/>
<path d="M199.786 16.5H176.948V35.6842H199.786V16.5Z" stroke="#F1F1F1"/>
<path d="M108.101 16.5H85.2632V35.6842H108.101V16.5Z" stroke="#F1F1F1"/>
<path d="M199.869 16.5H215.207C219.349 16.5 222.707 19.8579 222.707 24V35.6842H199.869V16.5Z" stroke="#F1F1F1"/>
<path d="M131.022 16.5H108.184V35.6842H131.022V16.5Z" stroke="#F1F1F1"/>
<path d="M39.3379 35.908H16.5V55.0922H39.3379V35.908Z" stroke="#F1F1F1"/>
<path d="M153.943 35.908H131.105V55.0922H153.943V35.908Z" stroke="#F1F1F1"/>
<path d="M62.2587 35.908H39.4208V55.0922H62.2587V35.908Z" stroke="#F1F1F1"/>
<path d="M176.864 35.908H154.026V55.0922H176.864V35.908Z" stroke="#F1F1F1"/>
<path d="M85.1802 35.908H62.3423V55.0922H85.1802V35.908Z" stroke="#F1F1F1"/>
<path d="M199.786 35.908H176.948V55.0922H199.786V35.908Z" stroke="#F1F1F1"/>
<path d="M108.101 35.908H85.2632V55.0922H108.101V35.908Z" stroke="#F1F1F1"/>
<path d="M222.707 35.908H199.869V55.0922H222.707V35.908Z" stroke="#F1F1F1"/>
<path d="M131.022 35.908H108.184V55.0922H131.022V35.908Z" stroke="#F1F1F1"/>
<path d="M39.3379 55.3157H16.5V74.4999H39.3379V55.3157Z" stroke="#F1F1F1"/>
<path d="M153.943 55.3157H131.105V74.4999H153.943V55.3157Z" stroke="#F1F1F1"/>
<path d="M62.2587 55.3157H39.4208V74.4999H62.2587V55.3157Z" stroke="#F1F1F1"/>
<path d="M176.864 55.3157H154.026V74.4999H176.864V55.3157Z" stroke="#F1F1F1"/>
<path d="M85.1802 55.3157H62.3423V74.4999H85.1802V55.3157Z" stroke="#F1F1F1"/>
<path d="M199.786 55.3157H176.948V74.4999H199.786V55.3157Z" stroke="#F1F1F1"/>
<path d="M108.101 55.3157H85.2632V74.4999H108.101V55.3157Z" stroke="#F1F1F1"/>
<path d="M222.707 55.3157H199.869V74.4999H222.707V55.3157Z" stroke="#F1F1F1"/>
<path d="M131.022 55.3157H108.184V74.4999H131.022V55.3157Z" stroke="#F1F1F1"/>
<path d="M48.3136 68.8157H46.8956V61.9661L44.8038 62.6809V61.4797L48.1319 60.2551H48.3136V68.8157ZM56.8515 62.5344C56.8515 62.9524 56.744 63.3254 56.5292 63.6536C56.3144 63.9778 56.0214 64.2336 55.6503 64.4211C56.0956 64.6282 56.4374 64.9114 56.6757 65.2708C56.9179 65.6301 57.039 66.0364 57.039 66.4895C57.039 67.2395 56.7851 67.8352 56.2772 68.2766C55.7694 68.7141 55.0937 68.9329 54.2499 68.9329C53.4022 68.9329 52.7226 68.7122 52.2108 68.2708C51.703 67.8293 51.4491 67.2356 51.4491 66.4895C51.4491 66.0325 51.5702 65.6223 51.8124 65.259C52.0546 64.8958 52.3944 64.6165 52.8319 64.4211C52.4647 64.2336 52.1737 63.9778 51.9589 63.6536C51.7479 63.3254 51.6425 62.9524 51.6425 62.5344C51.6425 61.8079 51.8769 61.2317 52.3456 60.8059C52.8144 60.3801 53.4472 60.1672 54.244 60.1672C55.0448 60.1672 55.6796 60.3801 56.1483 60.8059C56.6171 61.2317 56.8515 61.8079 56.8515 62.5344ZM55.6151 66.4192C55.6151 65.9973 55.4882 65.6575 55.2343 65.3997C54.9843 65.1379 54.6522 65.0071 54.2382 65.0071C53.8241 65.0071 53.4921 65.136 53.2421 65.3938C52.996 65.6516 52.8729 65.9934 52.8729 66.4192C52.8729 66.8372 52.994 67.1711 53.2362 67.4211C53.4823 67.6711 53.8202 67.7961 54.2499 67.7961C54.6796 67.7961 55.0136 67.675 55.2519 67.4329C55.494 67.1907 55.6151 66.8528 55.6151 66.4192ZM55.4335 62.5872C55.4335 62.2161 55.3261 61.9114 55.1112 61.6731C54.8964 61.4309 54.6073 61.3098 54.244 61.3098C53.8808 61.3098 53.5937 61.425 53.3827 61.6555C53.1718 61.8821 53.0663 62.1926 53.0663 62.5872C53.0663 62.9778 53.1718 63.2883 53.3827 63.5188C53.5976 63.7493 53.8866 63.8645 54.2499 63.8645C54.6132 63.8645 54.9003 63.7493 55.1112 63.5188C55.3261 63.2883 55.4335 62.9778 55.4335 62.5872Z" fill="#595959"/>
<path d="M73.7418 68.8157H68.0055V67.8372L70.8473 64.7375C71.2574 64.2805 71.5484 63.8997 71.7203 63.595C71.8961 63.2864 71.984 62.9778 71.984 62.6692C71.984 62.2629 71.8687 61.9348 71.6383 61.6848C71.4117 61.4348 71.1051 61.3098 70.7184 61.3098C70.2574 61.3098 69.9 61.4504 69.6461 61.7317C69.3922 62.0129 69.2652 62.3977 69.2652 62.886H67.8414C67.8414 62.3665 67.9586 61.8997 68.193 61.4856C68.4312 61.0676 68.7691 60.7434 69.2066 60.5129C69.648 60.2825 70.1559 60.1672 70.7301 60.1672C71.5582 60.1672 72.2105 60.3762 72.6871 60.7942C73.1676 61.2083 73.4078 61.7825 73.4078 62.5168C73.4078 62.9426 73.2867 63.3899 73.0445 63.8586C72.8062 64.3235 72.4137 64.8528 71.8668 65.4465L69.7809 67.679H73.7418V68.8157ZM75.4066 64.5852L75.8695 60.2844H80.4516V61.5149H77.0531L76.8187 63.554C77.2133 63.3274 77.6586 63.2141 78.1547 63.2141C78.9672 63.2141 79.598 63.4739 80.0473 63.9934C80.5004 64.5129 80.727 65.2122 80.727 66.0911C80.727 66.9583 80.477 67.6497 79.977 68.1653C79.477 68.677 78.7914 68.9329 77.9203 68.9329C77.1391 68.9329 76.4906 68.7122 75.975 68.2708C75.4633 67.8254 75.1859 67.2395 75.143 66.5129H76.5199C76.5746 66.927 76.723 67.2454 76.9652 67.468C77.2074 67.6868 77.5238 67.7961 77.9145 67.7961C78.352 67.7961 78.6918 67.6399 78.934 67.3274C79.1801 67.0149 79.3031 66.5891 79.3031 66.05C79.3031 65.5305 79.1684 65.1204 78.8988 64.8196C78.6293 64.5149 78.2582 64.3625 77.7855 64.3625C77.5277 64.3625 77.309 64.3977 77.1293 64.468C76.9496 64.5344 76.7543 64.6672 76.5434 64.8665L75.4066 64.5852Z" fill="#595959"/>
<path d="M27.0979 65.2239C27.0979 66.4504 26.8674 67.3762 26.4065 68.0012C25.9494 68.6223 25.2522 68.9329 24.3147 68.9329C23.3928 68.9329 22.6975 68.6301 22.2287 68.0247C21.7639 67.4153 21.5256 66.5149 21.5139 65.3235V63.8469C21.5139 62.6204 21.7424 61.7004 22.1994 61.0872C22.6604 60.4739 23.3615 60.1672 24.303 60.1672C25.2365 60.1672 25.9319 60.4661 26.3889 61.0637C26.8498 61.6614 27.0862 62.5559 27.0979 63.7473V65.2239ZM25.674 63.6301C25.674 62.8293 25.5647 62.2434 25.3459 61.8723C25.1272 61.4973 24.7795 61.3098 24.303 61.3098C23.8381 61.3098 23.4963 61.4875 23.2776 61.843C23.0588 62.1946 22.9436 62.7454 22.9319 63.4954V65.429C22.9319 66.2258 23.0432 66.8196 23.2658 67.2102C23.4885 67.6008 23.8381 67.7961 24.3147 67.7961C24.7717 67.7961 25.1096 67.6165 25.3283 67.2571C25.5471 66.8938 25.6623 66.3274 25.674 65.5579V63.6301ZM33.9307 62.5344C33.9307 62.9524 33.8233 63.3254 33.6084 63.6536C33.3936 63.9778 33.1006 64.2336 32.7295 64.4211C33.1748 64.6282 33.5166 64.9114 33.7549 65.2708C33.9971 65.6301 34.1182 66.0364 34.1182 66.4895C34.1182 67.2395 33.8643 67.8352 33.3565 68.2766C32.8487 68.7141 32.1729 68.9329 31.3291 68.9329C30.4815 68.9329 29.8018 68.7122 29.2901 68.2708C28.7823 67.8293 28.5283 67.2356 28.5283 66.4895C28.5283 66.0325 28.6494 65.6223 28.8916 65.259C29.1338 64.8958 29.4737 64.6165 29.9112 64.4211C29.544 64.2336 29.253 63.9778 29.0381 63.6536C28.8272 63.3254 28.7217 62.9524 28.7217 62.5344C28.7217 61.8079 28.9561 61.2317 29.4248 60.8059C29.8936 60.3801 30.5264 60.1672 31.3233 60.1672C32.124 60.1672 32.7588 60.3801 33.2276 60.8059C33.6963 61.2317 33.9307 61.8079 33.9307 62.5344ZM32.6944 66.4192C32.6944 65.9973 32.5674 65.6575 32.3135 65.3997C32.0635 65.1379 31.7315 65.0071 31.3174 65.0071C30.9033 65.0071 30.5713 65.136 30.3213 65.3938C30.0752 65.6516 29.9522 65.9934 29.9522 66.4192C29.9522 66.8372 30.0733 67.1711 30.3155 67.4211C30.5615 67.6711 30.8994 67.7961 31.3291 67.7961C31.7588 67.7961 32.0928 67.675 32.3311 67.4329C32.5733 67.1907 32.6944 66.8528 32.6944 66.4192ZM32.5127 62.5872C32.5127 62.2161 32.4053 61.9114 32.1905 61.6731C31.9756 61.4309 31.6865 61.3098 31.3233 61.3098C30.96 61.3098 30.6729 61.425 30.4619 61.6555C30.251 61.8821 30.1455 62.1926 30.1455 62.5872C30.1455 62.9778 30.251 63.2883 30.4619 63.5188C30.6768 63.7493 30.9658 63.8645 31.3291 63.8645C31.6924 63.8645 31.9795 63.7493 32.1905 63.5188C32.4053 63.2883 32.5127 62.9778 32.5127 62.5872Z" fill="#595959"/>
<path d="M73.1159 30H67.3796V29.0215L70.2214 25.9219C70.6316 25.4648 70.9226 25.084 71.0945 24.7793C71.2702 24.4707 71.3581 24.1621 71.3581 23.8535C71.3581 23.4473 71.2429 23.1191 71.0124 22.8691C70.7859 22.6191 70.4792 22.4941 70.0925 22.4941C69.6316 22.4941 69.2741 22.6348 69.0202 22.916C68.7663 23.1973 68.6394 23.582 68.6394 24.0703H67.2156C67.2156 23.5508 67.3327 23.084 67.5671 22.6699C67.8054 22.252 68.1433 21.9277 68.5808 21.6973C69.0222 21.4668 69.53 21.3516 70.1042 21.3516C70.9323 21.3516 71.5847 21.5605 72.0613 21.9785C72.5417 22.3926 72.782 22.9668 72.782 23.7012C72.782 24.127 72.6609 24.5742 72.4187 25.043C72.1804 25.5078 71.7878 26.0371 71.2409 26.6309L69.155 28.8633H73.1159V30ZM78.437 26.4316C77.9605 26.9355 77.4038 27.1875 76.7671 27.1875C76.0171 27.1875 75.4195 26.9258 74.9741 26.4023C74.5288 25.875 74.3062 25.1836 74.3062 24.3281C74.3062 23.7656 74.4195 23.2559 74.646 22.7988C74.8726 22.3418 75.1948 21.9863 75.6128 21.7324C76.0308 21.4785 76.5152 21.3516 77.0659 21.3516C77.9253 21.3516 78.607 21.6719 79.1109 22.3125C79.6148 22.9531 79.8667 23.8105 79.8667 24.8848V25.2832C79.8667 26.8223 79.5191 27.9961 78.8238 28.8047C78.1284 29.6133 77.0913 30.0234 75.7124 30.0352H75.5425V28.8574H75.7476C76.5874 28.8457 77.232 28.6445 77.6812 28.2539C78.1304 27.8594 78.3823 27.252 78.437 26.4316ZM77.0659 26.0742C77.3511 26.0742 77.6187 25.9922 77.8687 25.8281C78.1187 25.6641 78.312 25.4375 78.4488 25.1484V24.5918C78.4488 23.9629 78.3198 23.457 78.062 23.0742C77.8042 22.6914 77.4702 22.5 77.0601 22.5C76.6499 22.5 76.3218 22.6699 76.0757 23.0098C75.8335 23.3457 75.7124 23.7715 75.7124 24.2871C75.7124 24.8223 75.8355 25.2539 76.0816 25.582C76.3277 25.9102 76.6558 26.0742 77.0659 26.0742Z" fill="#595959"/>
<path d="M91.7796 25.084H92.6468C93.0843 25.0801 93.43 24.9668 93.6839 24.7441C93.9417 24.5215 94.0707 24.1992 94.0707 23.7773C94.0707 23.3711 93.9632 23.0566 93.7484 22.834C93.5375 22.6074 93.2132 22.4941 92.7757 22.4941C92.3929 22.4941 92.0785 22.6055 91.8324 22.8281C91.5863 23.0469 91.4632 23.334 91.4632 23.6895H90.0394C90.0394 23.252 90.1546 22.8535 90.3851 22.4941C90.6195 22.1348 90.9437 21.8555 91.3578 21.6562C91.7757 21.4531 92.2425 21.3516 92.7582 21.3516C93.6097 21.3516 94.2777 21.5664 94.7621 21.9961C95.2503 22.4219 95.4945 23.0156 95.4945 23.7773C95.4945 24.1602 95.3714 24.5215 95.1253 24.8613C94.8832 25.1973 94.5687 25.4512 94.182 25.623C94.6507 25.7832 95.0062 26.0352 95.2484 26.3789C95.4945 26.7227 95.6175 27.1328 95.6175 27.6094C95.6175 28.375 95.3539 28.9844 94.8265 29.4375C94.3031 29.8906 93.6136 30.1172 92.7582 30.1172C91.9378 30.1172 91.266 29.8984 90.7425 29.4609C90.2191 29.0234 89.9574 28.4414 89.9574 27.7148H91.3812C91.3812 28.0898 91.5062 28.3945 91.7562 28.6289C92.0101 28.8633 92.35 28.9805 92.7757 28.9805C93.2171 28.9805 93.5648 28.8633 93.8187 28.6289C94.0726 28.3945 94.1996 28.0547 94.1996 27.6094C94.1996 27.1602 94.0667 26.8145 93.8011 26.5723C93.5355 26.3301 93.141 26.209 92.6175 26.209H91.7796V25.084ZM102.89 30H97.1535V29.0215L99.9953 25.9219C100.405 25.4648 100.696 25.084 100.868 24.7793C101.044 24.4707 101.132 24.1621 101.132 23.8535C101.132 23.4473 101.017 23.1191 100.786 22.8691C100.56 22.6191 100.253 22.4941 99.8664 22.4941C99.4054 22.4941 99.048 22.6348 98.7941 22.916C98.5402 23.1973 98.4132 23.582 98.4132 24.0703H96.9894C96.9894 23.5508 97.1066 23.084 97.341 22.6699C97.5792 22.252 97.9171 21.9277 98.3546 21.6973C98.796 21.4668 99.3039 21.3516 99.8781 21.3516C100.706 21.3516 101.359 21.5605 101.835 21.9785C102.316 22.3926 102.556 22.9668 102.556 23.7012C102.556 24.127 102.435 24.5742 102.193 25.043C101.954 25.5078 101.562 26.0371 101.015 26.6309L98.9289 28.8633H102.89V30Z" fill="#595959"/>
<path d="M27.0979 45.816C27.0979 47.0426 26.8674 47.9684 26.4065 48.5934C25.9494 49.2145 25.2522 49.525 24.3147 49.525C23.3928 49.525 22.6975 49.2223 22.2287 48.6168C21.7639 48.0074 21.5256 47.1071 21.5139 45.9156V44.4391C21.5139 43.2125 21.7424 42.2926 22.1994 41.6793C22.6604 41.066 23.3615 40.7594 24.303 40.7594C25.2365 40.7594 25.9319 41.0582 26.3889 41.6559C26.8498 42.2535 27.0862 43.1481 27.0979 44.3395V45.816ZM25.674 44.2223C25.674 43.4215 25.5647 42.8356 25.3459 42.4645C25.1272 42.0895 24.7795 41.902 24.303 41.902C23.8381 41.902 23.4963 42.0797 23.2776 42.4352C23.0588 42.7867 22.9436 43.3375 22.9319 44.0875V46.0211C22.9319 46.818 23.0432 47.4117 23.2658 47.8024C23.4885 48.193 23.8381 48.3883 24.3147 48.3883C24.7717 48.3883 25.1096 48.2086 25.3283 47.8492C25.5471 47.486 25.6623 46.9196 25.674 46.15V44.2223ZM32.4131 49.4078H30.9951V42.5582L28.9033 43.2731V42.0719L32.2315 40.8473H32.4131V49.4078Z" fill="#595959"/>
<path d="M47.5205 49.4078H46.1025V42.5582L44.0107 43.2731V42.0719L47.3388 40.8473H47.5205V49.4078ZM54.7224 45.8395C54.2459 46.3434 53.6892 46.5953 53.0525 46.5953C52.3025 46.5953 51.7049 46.3336 51.2595 45.8102C50.8142 45.2828 50.5916 44.5914 50.5916 43.736C50.5916 43.1735 50.7049 42.6637 50.9314 42.2067C51.158 41.7496 51.4802 41.3942 51.8982 41.1403C52.3162 40.8864 52.8006 40.7594 53.3513 40.7594C54.2107 40.7594 54.8924 41.0797 55.3963 41.7203C55.9002 42.361 56.1521 43.2184 56.1521 44.2926V44.691C56.1521 46.2301 55.8045 47.4039 55.1092 48.2125C54.4138 49.0211 53.3767 49.4313 51.9978 49.443H51.8279V48.2653H52.033C52.8728 48.2535 53.5174 48.0524 53.9666 47.6617C54.4158 47.2672 54.6677 46.6598 54.7224 45.8395ZM53.3513 45.4821C53.6365 45.4821 53.9041 45.4 54.1541 45.236C54.4041 45.0719 54.5974 44.8453 54.7342 44.5563V43.9996C54.7342 43.3707 54.6052 42.8649 54.3474 42.4821C54.0896 42.0992 53.7556 41.9078 53.3455 41.9078C52.9353 41.9078 52.6072 42.0778 52.3611 42.4176C52.1189 42.7535 51.9978 43.1793 51.9978 43.6949C51.9978 44.2301 52.1209 44.6617 52.367 44.9899C52.6131 45.318 52.9412 45.4821 53.3513 45.4821Z" fill="#595959"/>
<path d="M118.354 65.551H119.414V66.6936H118.354V68.592H116.93V66.6936H113.244L113.203 65.8264L116.883 60.0608H118.354V65.551ZM114.697 65.551H116.93V61.9885L116.824 62.176L114.697 65.551ZM126.235 60.8518L122.825 68.592H121.331L124.735 61.2034H120.323V60.0608H126.235V60.8518Z" fill="#595959"/>
<path d="M188.215 61.0754L184.805 68.8157H183.311L186.715 61.427H182.303V60.2844H188.215V61.0754ZM189.939 64.5852L190.401 60.2844H194.983V61.5149H191.585L191.351 63.554C191.745 63.3274 192.19 63.2141 192.687 63.2141C193.499 63.2141 194.13 63.4739 194.579 63.9934C195.032 64.5129 195.259 65.2122 195.259 66.0911C195.259 66.9583 195.009 67.6497 194.509 68.1653C194.009 68.677 193.323 68.9329 192.452 68.9329C191.671 68.9329 191.022 68.7122 190.507 68.2708C189.995 67.8254 189.718 67.2395 189.675 66.5129H191.052C191.106 66.927 191.255 67.2454 191.497 67.468C191.739 67.6868 192.056 67.7961 192.446 67.7961C192.884 67.7961 193.224 67.6399 193.466 67.3274C193.712 67.0149 193.835 66.5891 193.835 66.05C193.835 65.5305 193.7 65.1204 193.431 64.8196C193.161 64.5149 192.79 64.3625 192.317 64.3625C192.06 64.3625 191.841 64.3977 191.661 64.468C191.481 64.5344 191.286 64.6672 191.075 64.8665L189.939 64.5852Z" fill="#595959"/>
<path d="M118.354 46.3668H119.414V47.5094H118.354V49.4078H116.93V47.5094H113.244L113.203 46.6422L116.883 40.8766H118.354V46.3668ZM114.697 46.3668H116.93V42.8043L116.824 42.9918L114.697 46.3668ZM126.118 45.816C126.118 47.0426 125.888 47.9684 125.427 48.5934C124.97 49.2145 124.272 49.525 123.335 49.525C122.413 49.525 121.718 49.2223 121.249 48.6168C120.784 48.0074 120.546 47.1071 120.534 45.9156V44.4391C120.534 43.2125 120.763 42.2926 121.22 41.6793C121.681 41.066 122.382 40.7594 123.323 40.7594C124.257 40.7594 124.952 41.0582 125.409 41.6559C125.87 42.2535 126.106 43.1481 126.118 44.3395V45.816ZM124.694 44.2223C124.694 43.4215 124.585 42.8356 124.366 42.4645C124.147 42.0895 123.8 41.902 123.323 41.902C122.858 41.902 122.517 42.0797 122.298 42.4352C122.079 42.7867 121.964 43.3375 121.952 44.0875V46.0211C121.952 46.818 122.064 47.4117 122.286 47.8024C122.509 48.193 122.858 48.3883 123.335 48.3883C123.792 48.3883 124.13 48.2086 124.349 47.8492C124.567 47.486 124.683 46.9196 124.694 46.15V44.2223Z" fill="#595959"/>
<path d="M136.756 45.1774L137.219 40.8766H141.801V42.1071H138.403L138.168 44.1461C138.563 43.9196 139.008 43.8063 139.504 43.8063C140.317 43.8063 140.947 44.066 141.397 44.5856C141.85 45.1051 142.076 45.8043 142.076 46.6832C142.076 47.5504 141.826 48.2418 141.326 48.7574C140.826 49.2692 140.141 49.525 139.27 49.525C138.489 49.525 137.84 49.3043 137.324 48.8629C136.813 48.4176 136.535 47.8317 136.492 47.1051H137.869C137.924 47.5192 138.072 47.8375 138.315 48.0602C138.557 48.2789 138.873 48.3883 139.264 48.3883C139.701 48.3883 140.041 48.2321 140.283 47.9196C140.53 47.6071 140.653 47.1813 140.653 46.6422C140.653 46.1227 140.518 45.7125 140.248 45.4117C139.979 45.1071 139.608 44.9547 139.135 44.9547C138.877 44.9547 138.658 44.9899 138.479 45.0602C138.299 45.1266 138.104 45.2594 137.893 45.4586L136.756 45.1774ZM148.212 46.3668H149.272V47.5094H148.212V49.4078H146.788V47.5094H143.103L143.062 46.6422L146.741 40.8766H148.212V46.3668ZM144.556 46.3668H146.788V42.8043L146.683 42.9918L144.556 46.3668Z" fill="#595959"/>
<path d="M210.57 42.7188C210.57 43.1367 210.463 43.5098 210.248 43.8379C210.033 44.1621 209.74 44.418 209.369 44.6055C209.814 44.8125 210.156 45.0957 210.394 45.4551C210.636 45.8145 210.758 46.2207 210.758 46.6738C210.758 47.4238 210.504 48.0195 209.996 48.4609C209.488 48.8984 208.812 49.1172 207.968 49.1172C207.121 49.1172 206.441 48.8965 205.929 48.4551C205.422 48.0137 205.168 47.4199 205.168 46.6738C205.168 46.2168 205.289 45.8066 205.531 45.4434C205.773 45.0801 206.113 44.8008 206.551 44.6055C206.183 44.418 205.892 44.1621 205.677 43.8379C205.467 43.5098 205.361 43.1367 205.361 42.7188C205.361 41.9922 205.595 41.416 206.064 40.9902C206.533 40.5645 207.166 40.3516 207.963 40.3516C208.763 40.3516 209.398 40.5645 209.867 40.9902C210.336 41.416 210.57 41.9922 210.57 42.7188ZM209.334 46.6035C209.334 46.1816 209.207 45.8418 208.953 45.584C208.703 45.3223 208.371 45.1914 207.957 45.1914C207.543 45.1914 207.211 45.3203 206.961 45.5781C206.715 45.8359 206.592 46.1777 206.592 46.6035C206.592 47.0215 206.713 47.3555 206.955 47.6055C207.201 47.8555 207.539 47.9805 207.968 47.9805C208.398 47.9805 208.732 47.8594 208.97 47.6172C209.213 47.375 209.334 47.0371 209.334 46.6035ZM209.152 42.7715C209.152 42.4004 209.045 42.0957 208.83 41.8574C208.615 41.6152 208.326 41.4941 207.963 41.4941C207.599 41.4941 207.312 41.6094 207.101 41.8398C206.89 42.0664 206.785 42.377 206.785 42.7715C206.785 43.1621 206.89 43.4727 207.101 43.7031C207.316 43.9336 207.605 44.0488 207.968 44.0488C208.332 44.0488 208.619 43.9336 208.83 43.7031C209.045 43.4727 209.152 43.1621 209.152 42.7715ZM217.034 45.959H218.094V47.1016H217.034V49H215.61V47.1016H211.924L211.883 46.2344L215.563 40.4688H217.034V45.959ZM213.377 45.959H215.61V42.3965L215.504 42.584L213.377 45.959Z" fill="#595959"/>
<path d="M211.072 23.7188C211.072 24.1367 210.965 24.5098 210.75 24.8379C210.535 25.1621 210.242 25.418 209.871 25.6055C210.317 25.8125 210.658 26.0957 210.897 26.4551C211.139 26.8145 211.26 27.2207 211.26 27.6738C211.26 28.4238 211.006 29.0195 210.498 29.4609C209.99 29.8984 209.315 30.1172 208.471 30.1172C207.623 30.1172 206.944 29.8965 206.432 29.4551C205.924 29.0137 205.67 28.4199 205.67 27.6738C205.67 27.2168 205.791 26.8066 206.033 26.4434C206.276 26.0801 206.615 25.8008 207.053 25.6055C206.686 25.418 206.395 25.1621 206.18 24.8379C205.969 24.5098 205.864 24.1367 205.864 23.7188C205.864 22.9922 206.098 22.416 206.567 21.9902C207.035 21.5645 207.668 21.3516 208.465 21.3516C209.266 21.3516 209.901 21.5645 210.369 21.9902C210.838 22.416 211.072 22.9922 211.072 23.7188ZM209.836 27.6035C209.836 27.1816 209.709 26.8418 209.455 26.584C209.205 26.3223 208.873 26.1914 208.459 26.1914C208.045 26.1914 207.713 26.3203 207.463 26.5781C207.217 26.8359 207.094 27.1777 207.094 27.6035C207.094 28.0215 207.215 28.3555 207.457 28.6055C207.703 28.8555 208.041 28.9805 208.471 28.9805C208.901 28.9805 209.235 28.8594 209.473 28.6172C209.715 28.375 209.836 28.0371 209.836 27.6035ZM209.655 23.7715C209.655 23.4004 209.547 23.0957 209.332 22.8574C209.117 22.6152 208.828 22.4941 208.465 22.4941C208.102 22.4941 207.815 22.6094 207.604 22.8398C207.393 23.0664 207.287 23.377 207.287 23.7715C207.287 24.1621 207.393 24.4727 207.604 24.7031C207.819 24.9336 208.108 25.0488 208.471 25.0488C208.834 25.0488 209.121 24.9336 209.332 24.7031C209.547 24.4727 209.655 24.1621 209.655 23.7715ZM216.757 26.4316C216.28 26.9355 215.724 27.1875 215.087 27.1875C214.337 27.1875 213.739 26.9258 213.294 26.4023C212.849 25.875 212.626 25.1836 212.626 24.3281C212.626 23.7656 212.739 23.2559 212.966 22.7988C213.192 22.3418 213.515 21.9863 213.933 21.7324C214.351 21.4785 214.835 21.3516 215.386 21.3516C216.245 21.3516 216.927 21.6719 217.431 22.3125C217.935 22.9531 218.187 23.8105 218.187 24.8848V25.2832C218.187 26.8223 217.839 27.9961 217.144 28.8047C216.448 29.6133 215.411 30.0234 214.032 30.0352H213.862V28.8574H214.067C214.907 28.8457 215.552 28.6445 216.001 28.2539C216.45 27.8594 216.702 27.252 216.757 26.4316ZM215.386 26.0742C215.671 26.0742 215.939 25.9922 216.189 25.8281C216.439 25.6641 216.632 25.4375 216.769 25.1484V24.5918C216.769 23.9629 216.64 23.457 216.382 23.0742C216.124 22.6914 215.79 22.5 215.38 22.5C214.97 22.5 214.642 22.6699 214.396 23.0098C214.153 23.3457 214.032 23.7715 214.032 24.2871C214.032 24.8223 214.155 25.2539 214.401 25.582C214.647 25.9102 214.976 26.0742 215.386 26.0742Z" fill="#595959"/>
<path d="M188.747 22.2598L185.337 30H183.843L187.247 22.6113H182.835V21.4688H188.747V22.2598ZM191.736 25.084H192.603C193.041 25.0801 193.386 24.9668 193.64 24.7441C193.898 24.5215 194.027 24.1992 194.027 23.7773C194.027 23.3711 193.92 23.0566 193.705 22.834C193.494 22.6074 193.17 22.4941 192.732 22.4941C192.349 22.4941 192.035 22.6055 191.789 22.8281C191.543 23.0469 191.42 23.334 191.42 23.6895H189.996C189.996 23.252 190.111 22.8535 190.342 22.4941C190.576 22.1348 190.9 21.8555 191.314 21.6562C191.732 21.4531 192.199 21.3516 192.715 21.3516C193.566 21.3516 194.234 21.5664 194.719 21.9961C195.207 22.4219 195.451 23.0156 195.451 23.7773C195.451 24.1602 195.328 24.5215 195.082 24.8613C194.84 25.1973 194.525 25.4512 194.138 25.623C194.607 25.7832 194.963 26.0352 195.205 26.3789C195.451 26.7227 195.574 27.1328 195.574 27.6094C195.574 28.375 195.31 28.9844 194.783 29.4375C194.26 29.8906 193.57 30.1172 192.715 30.1172C191.894 30.1172 191.222 29.8984 190.699 29.4609C190.176 29.0234 189.914 28.4414 189.914 27.7148H191.338C191.338 28.0898 191.463 28.3945 191.713 28.6289C191.967 28.8633 192.306 28.9805 192.732 28.9805C193.174 28.9805 193.521 28.8633 193.775 28.6289C194.029 28.3945 194.156 28.0547 194.156 27.6094C194.156 27.1602 194.023 26.8145 193.758 26.5723C193.492 26.3301 193.097 26.209 192.574 26.209H191.736V25.084Z" fill="#595959"/>
<path d="M164.265 21.4277V22.6055H164.089C163.292 22.6172 162.656 22.8359 162.179 23.2617C161.702 23.6875 161.419 24.291 161.329 25.0723C161.786 24.5918 162.37 24.3516 163.081 24.3516C163.835 24.3516 164.429 24.6172 164.863 25.1484C165.3 25.6797 165.519 26.3652 165.519 27.2051C165.519 28.0723 165.263 28.7754 164.751 29.3145C164.244 29.8496 163.576 30.1172 162.747 30.1172C161.896 30.1172 161.204 29.8027 160.673 29.1738C160.146 28.5449 159.882 27.7207 159.882 26.7012V26.2148C159.882 24.7188 160.245 23.5469 160.972 22.6992C161.702 21.8516 162.751 21.4277 164.119 21.4277H164.265ZM162.736 25.5C162.423 25.5 162.136 25.5879 161.874 25.7637C161.617 25.9395 161.427 26.1738 161.306 26.4668V26.9004C161.306 27.5332 161.439 28.0371 161.704 28.4121C161.97 28.7832 162.314 28.9688 162.736 28.9688C163.158 28.9688 163.492 28.8105 163.738 28.4941C163.984 28.1777 164.107 27.7617 164.107 27.2461C164.107 26.7305 163.982 26.3105 163.732 25.9863C163.482 25.6621 163.15 25.5 162.736 25.5ZM171.285 21.4277V22.6055H171.11C170.313 22.6172 169.676 22.8359 169.199 23.2617C168.723 23.6875 168.44 24.291 168.35 25.0723C168.807 24.5918 169.391 24.3516 170.102 24.3516C170.856 24.3516 171.449 24.6172 171.883 25.1484C172.32 25.6797 172.539 26.3652 172.539 27.2051C172.539 28.0723 172.283 28.7754 171.772 29.3145C171.264 29.8496 170.596 30.1172 169.768 30.1172C168.916 30.1172 168.225 29.8027 167.694 29.1738C167.166 28.5449 166.902 27.7207 166.902 26.7012V26.2148C166.902 24.7188 167.266 23.5469 167.992 22.6992C168.723 21.8516 169.772 21.4277 171.139 21.4277H171.285ZM169.756 25.5C169.444 25.5 169.156 25.5879 168.895 25.7637C168.637 25.9395 168.447 26.1738 168.326 26.4668V26.9004C168.326 27.5332 168.459 28.0371 168.725 28.4121C168.99 28.7832 169.334 28.9688 169.756 28.9688C170.178 28.9688 170.512 28.8105 170.758 28.4941C171.004 28.1777 171.127 27.7617 171.127 27.2461C171.127 26.7305 171.002 26.3105 170.752 25.9863C170.502 25.6621 170.17 25.5 169.756 25.5Z" fill="#595959"/>
<path d="M16.5 28.8C16.5 26.5515 16.5004 24.8953 16.6073 23.5863C16.7138 22.2832 16.9234 21.3685 17.3175 20.5951C18.0365 19.1839 19.1839 18.0365 20.5951 17.3175C21.3685 16.9234 22.2832 16.7138 23.5863 16.6073C24.8953 16.5004 26.5515 16.5 28.8 16.5H210.094C212.342 16.5 213.998 16.5004 215.307 16.6073C216.61 16.7138 217.525 16.9234 218.299 17.3175C219.71 18.0365 220.857 19.1839 221.576 20.5951C221.97 21.3685 222.18 22.2832 222.286 23.5863C222.393 24.8953 222.394 26.5515 222.394 28.8V74.5H16.5V28.8Z" stroke="#C8C8C8"/>
<path d="M39.3142 83.5001H16.5001V102.684H39.3142V83.5001Z" stroke="#F1F1F1"/>
<path d="M153.805 83.5H130.991V102.684H153.805V83.5Z" stroke="#F1F1F1"/>
<path d="M62.212 83.5H39.3979V102.684H62.212V83.5Z" stroke="#F1F1F1"/>
<path d="M176.703 83.5H153.889V102.684H176.703V83.5Z" stroke="#F1F1F1"/>
<path d="M85.1107 83.5H62.2966V102.684H85.1107V83.5Z" stroke="#F1F1F1"/>
<path d="M199.602 83.5H176.788V102.684H199.602V83.5Z" stroke="#F1F1F1"/>
<path d="M108.009 83.5H85.1948V102.684H108.009V83.5Z" stroke="#F1F1F1"/>
<path d="M222.5 83.5H199.686V102.684H222.5V83.5Z" stroke="#F1F1F1"/>
<path d="M130.907 83.5H108.093V102.684H130.907V83.5Z" stroke="#F1F1F1"/>
<path d="M39.3141 102.908H16.5V122.092H39.3141V102.908Z" stroke="#F1F1F1"/>
<path d="M153.805 102.908H130.991V122.092H153.805V102.908Z" stroke="#F1F1F1"/>
<path d="M62.2119 102.908H39.3978V122.092H62.2119V102.908Z" stroke="#F1F1F1"/>
<path d="M176.703 102.908H153.889V122.092H176.703V102.908Z" stroke="#F1F1F1"/>
<path d="M85.1106 102.908H62.2965V122.092H85.1106V102.908Z" stroke="#F1F1F1"/>
<path d="M199.601 102.908H176.787V122.092H199.601V102.908Z" stroke="#F1F1F1"/>
<path d="M108.009 102.908H85.1947V122.092H108.009V102.908Z" stroke="#F1F1F1"/>
<path d="M222.5 102.908H199.686V122.092H222.5V102.908Z" stroke="#F1F1F1"/>
<path d="M130.907 102.908H108.093V122.092H130.907V102.908Z" stroke="#F1F1F1"/>
<path d="M16.5 122.316H39.3141V141.5H28.8C26.5515 141.5 24.8953 141.5 23.5863 141.393C22.2832 141.286 21.3685 141.077 20.5951 140.683C19.1839 139.963 18.0365 138.816 17.3175 137.405C16.9234 136.631 16.7138 135.717 16.6073 134.414C16.5004 133.105 16.5 131.448 16.5 129.2V122.316Z" stroke="#F1F1F1"/>
<path d="M153.805 122.315H130.991V141.499H153.805V122.315Z" stroke="#F1F1F1"/>
<path d="M62.2119 122.315H39.3978V141.499H62.2119V122.315Z" stroke="#F1F1F1"/>
<path d="M176.703 122.315H153.889V141.499H176.703V122.315Z" stroke="#F1F1F1"/>
<path d="M85.1106 122.315H62.2965V141.499H85.1106V122.315Z" stroke="#F1F1F1"/>
<path d="M199.601 122.315H176.787V141.499H199.601V122.315Z" stroke="#F1F1F1"/>
<path d="M108.009 122.315H85.1947V141.499H108.009V122.315Z" stroke="#F1F1F1"/>
<path d="M199.686 122.315H222.5V133.999C222.5 138.141 219.142 141.499 215 141.499H199.686V122.315Z" stroke="#F1F1F1"/>
<path d="M130.907 122.315H108.093V141.499H130.907V122.315Z" stroke="#F1F1F1"/>
<path d="M48.5918 97.0001H47.1739V90.1505L45.0821 90.8654V89.6642L48.4102 88.4396H48.5918V97.0001ZM53.4032 92.0841H54.2704C54.7079 92.0802 55.0536 91.9669 55.3075 91.7443C55.5653 91.5216 55.6942 91.1993 55.6942 90.7775C55.6942 90.3712 55.5868 90.0568 55.3719 89.8341C55.161 89.6075 54.8368 89.4943 54.3993 89.4943C54.0164 89.4943 53.702 89.6056 53.4559 89.8282C53.2098 90.047 53.0868 90.3341 53.0868 90.6896H51.6629C51.6629 90.2521 51.7782 89.8536 52.0086 89.4943C52.243 89.1349 52.5672 88.8556 52.9813 88.6564C53.3993 88.4532 53.8661 88.3517 54.3817 88.3517C55.2332 88.3517 55.9012 88.5665 56.3856 88.9962C56.8739 89.422 57.118 90.0157 57.118 90.7775C57.118 91.1603 56.995 91.5216 56.7489 91.8615C56.5067 92.1974 56.1922 92.4513 55.8055 92.6232C56.2743 92.7833 56.6297 93.0353 56.8719 93.379C57.118 93.7228 57.2411 94.1329 57.2411 94.6095C57.2411 95.3751 56.9774 95.9845 56.45 96.4376C55.9266 96.8907 55.2372 97.1173 54.3817 97.1173C53.5614 97.1173 52.8895 96.8986 52.3661 96.4611C51.8426 96.0236 51.5809 95.4415 51.5809 94.715H53.0047C53.0047 95.09 53.1297 95.3947 53.3797 95.629C53.6336 95.8634 53.9735 95.9806 54.3993 95.9806C54.8407 95.9806 55.1883 95.8634 55.4422 95.629C55.6961 95.3947 55.8231 95.0548 55.8231 94.6095C55.8231 94.1603 55.6903 93.8146 55.4247 93.5724C55.159 93.3302 54.7645 93.2091 54.2411 93.2091H53.4032V92.0841Z" fill="#595959"/>
<path d="M27.0861 112.851C27.0861 114.078 26.8556 115.004 26.3947 115.629C25.9377 116.25 25.2404 116.56 24.3029 116.56C23.381 116.56 22.6857 116.257 22.217 115.652C21.7521 115.043 21.5138 114.142 21.5021 112.951V111.474C21.5021 110.248 21.7306 109.328 22.1877 108.714C22.6486 108.101 23.3498 107.795 24.2912 107.795C25.2248 107.795 25.9201 108.093 26.3771 108.691C26.8381 109.289 27.0744 110.183 27.0861 111.375V112.851ZM25.6623 111.257C25.6623 110.457 25.5529 109.871 25.3342 109.5C25.1154 109.125 24.7677 108.937 24.2912 108.937C23.8263 108.937 23.4845 109.115 23.2658 109.47C23.047 109.822 22.9318 110.373 22.9201 111.123V113.056C22.9201 113.853 23.0314 114.447 23.2541 114.838C23.4767 115.228 23.8263 115.423 24.3029 115.423C24.7599 115.423 25.0978 115.244 25.3166 114.884C25.5353 114.521 25.6506 113.955 25.6623 113.185V111.257ZM28.9267 112.213L29.3896 107.912H33.9717V109.142H30.5732L30.3388 111.181C30.7334 110.955 31.1787 110.841 31.6748 110.841C32.4873 110.841 33.1181 111.101 33.5674 111.621C34.0205 112.14 34.247 112.839 34.247 113.718C34.247 114.586 33.997 115.277 33.497 115.793C32.997 116.304 32.3115 116.56 31.4404 116.56C30.6592 116.56 30.0107 116.339 29.4951 115.898C28.9834 115.453 28.706 114.867 28.6631 114.14H30.04C30.0947 114.554 30.2431 114.873 30.4853 115.095C30.7275 115.314 31.0439 115.423 31.4345 115.423C31.872 115.423 32.2119 115.267 32.4541 114.955C32.7002 114.642 32.8232 114.216 32.8232 113.677C32.8232 113.158 32.6884 112.748 32.4189 112.447C32.1494 112.142 31.7783 111.99 31.3056 111.99C31.0478 111.99 30.8291 112.025 30.6494 112.095C30.4697 112.162 30.2744 112.295 30.0634 112.494L28.9267 112.213Z" fill="#595959"/>
<path d="M48.2791 135.815H46.8611V128.966L44.7693 129.681V128.479L48.0975 127.255H48.2791V135.815ZM57.1217 128.075L53.7115 135.815H52.2174L55.6217 128.427H51.2096V127.284H57.1217V128.075Z" fill="#595959"/>
<path d="M92.1719 130.899H93.0391C93.4766 130.895 93.8223 130.782 94.0762 130.559C94.334 130.337 94.4629 130.015 94.4629 129.593C94.4629 129.186 94.3555 128.872 94.1407 128.649C93.9297 128.423 93.6055 128.309 93.168 128.309C92.7852 128.309 92.4707 128.421 92.2247 128.643C91.9786 128.862 91.8555 129.149 91.8555 129.505H90.4317C90.4317 129.067 90.5469 128.669 90.7774 128.309C91.0118 127.95 91.336 127.671 91.75 127.472C92.168 127.268 92.6348 127.167 93.1504 127.167C94.002 127.167 94.67 127.382 95.1543 127.811C95.6426 128.237 95.8868 128.831 95.8868 129.593C95.8868 129.975 95.7637 130.337 95.5176 130.677C95.2754 131.013 94.961 131.266 94.5743 131.438C95.043 131.599 95.3985 131.85 95.6407 132.194C95.8868 132.538 96.0098 132.948 96.0098 133.425C96.0098 134.19 95.7461 134.8 95.2188 135.253C94.6954 135.706 94.0059 135.932 93.1504 135.932C92.3301 135.932 91.6582 135.714 91.1348 135.276C90.6114 134.839 90.3497 134.257 90.3497 133.53H91.7735C91.7735 133.905 91.8985 134.21 92.1485 134.444C92.4024 134.679 92.7422 134.796 93.168 134.796C93.6094 134.796 93.9571 134.679 94.211 134.444C94.4649 134.21 94.5918 133.87 94.5918 133.425C94.5918 132.975 94.459 132.63 94.1934 132.388C93.9278 132.145 93.5332 132.024 93.0098 132.024H92.1719V130.899ZM102.362 132.774H103.423V133.917H102.362V135.815H100.938V133.917H97.2528L97.2118 133.05L100.891 127.284H102.362V132.774ZM98.7059 132.774H100.938V129.212L100.833 129.399L98.7059 132.774Z" fill="#595959"/>
<path d="M118.342 132.774H119.402V133.917H118.342V135.815H116.918V133.917H113.232L113.191 133.05L116.871 127.284H118.342V132.774ZM114.686 132.774H116.918V129.212L116.813 129.399L114.686 132.774ZM124.583 132.247C124.106 132.751 123.55 133.003 122.913 133.003C122.163 133.003 121.565 132.741 121.12 132.218C120.675 131.69 120.452 130.999 120.452 130.143C120.452 129.581 120.565 129.071 120.792 128.614C121.018 128.157 121.341 127.802 121.759 127.548C122.177 127.294 122.661 127.167 123.212 127.167C124.071 127.167 124.753 127.487 125.257 128.128C125.761 128.768 126.013 129.626 126.013 130.7V131.099C126.013 132.638 125.665 133.811 124.97 134.62C124.274 135.429 123.237 135.839 121.858 135.85H121.688V134.673H121.893C122.733 134.661 123.378 134.46 123.827 134.069C124.276 133.675 124.528 133.067 124.583 132.247ZM123.212 131.89C123.497 131.89 123.764 131.807 124.014 131.643C124.264 131.479 124.458 131.253 124.595 130.964V130.407C124.595 129.778 124.466 129.272 124.208 128.89C123.95 128.507 123.616 128.315 123.206 128.315C122.796 128.315 122.468 128.485 122.222 128.825C121.979 129.161 121.858 129.587 121.858 130.102C121.858 130.638 121.981 131.069 122.227 131.397C122.473 131.725 122.802 131.89 123.212 131.89Z" fill="#595959"/>
<path d="M73.0583 97H67.3219V96.0215L70.1637 92.9219C70.5739 92.4648 70.8649 92.084 71.0368 91.7793C71.2126 91.4707 71.3005 91.1621 71.3005 90.8535C71.3005 90.4473 71.1852 90.1191 70.9548 89.8691C70.7282 89.6191 70.4216 89.4941 70.0348 89.4941C69.5739 89.4941 69.2165 89.6348 68.9626 89.916C68.7087 90.1973 68.5817 90.582 68.5817 91.0703H67.1579C67.1579 90.5508 67.2751 90.084 67.5094 89.6699C67.7477 89.252 68.0856 88.9277 68.5231 88.6973C68.9645 88.4668 69.4723 88.3516 70.0466 88.3516C70.8747 88.3516 71.527 88.5605 72.0036 88.9785C72.4841 89.3926 72.7243 89.9668 72.7243 90.7012C72.7243 91.127 72.6032 91.5742 72.361 92.043C72.1227 92.5078 71.7301 93.0371 71.1833 93.6309L69.0973 95.8633H73.0583V97ZM80.02 89.2598L76.6098 97H75.1157L78.52 89.6113H74.1079V88.4688H80.02V89.2598Z" fill="#595959"/>
<path d="M91.8669 111.492H92.7341C93.1716 111.488 93.5173 111.374 93.7712 111.152C94.029 110.929 94.1579 110.607 94.1579 110.185C94.1579 109.779 94.0505 109.464 93.8356 109.242C93.6247 109.015 93.3005 108.902 92.863 108.902C92.4801 108.902 92.1657 109.013 91.9196 109.236C91.6735 109.454 91.5505 109.742 91.5505 110.097H90.1266C90.1266 109.66 90.2419 109.261 90.4723 108.902C90.7067 108.542 91.0309 108.263 91.445 108.064C91.863 107.861 92.3298 107.759 92.8454 107.759C93.6969 107.759 94.3649 107.974 94.8493 108.404C95.3376 108.829 95.5817 109.423 95.5817 110.185C95.5817 110.568 95.4587 110.929 95.2126 111.269C94.9704 111.605 94.6559 111.859 94.2692 112.031C94.738 112.191 95.0934 112.443 95.3356 112.786C95.5817 113.13 95.7048 113.54 95.7048 114.017C95.7048 114.783 95.4411 115.392 94.9137 115.845C94.3903 116.298 93.7008 116.525 92.8454 116.525C92.0251 116.525 91.3532 116.306 90.8298 115.869C90.3063 115.431 90.0446 114.849 90.0446 114.122H91.4684C91.4684 114.497 91.5934 114.802 91.8434 115.036C92.0973 115.271 92.4372 115.388 92.863 115.388C93.3044 115.388 93.652 115.271 93.9059 115.036C94.1598 114.802 94.2868 114.462 94.2868 114.017C94.2868 113.568 94.154 113.222 93.8883 112.98C93.6227 112.738 93.2282 112.617 92.7048 112.617H91.8669V111.492ZM102.614 110.126C102.614 110.544 102.506 110.917 102.291 111.245C102.077 111.57 101.784 111.826 101.413 112.013C101.858 112.22 102.2 112.503 102.438 112.863C102.68 113.222 102.801 113.628 102.801 114.081C102.801 114.831 102.547 115.427 102.04 115.869C101.532 116.306 100.856 116.525 100.012 116.525C99.1645 116.525 98.4848 116.304 97.9731 115.863C97.4653 115.421 97.2114 114.828 97.2114 114.081C97.2114 113.624 97.3325 113.214 97.5747 112.851C97.8169 112.488 98.1567 112.208 98.5942 112.013C98.227 111.826 97.936 111.57 97.7212 111.245C97.5102 110.917 97.4048 110.544 97.4048 110.126C97.4048 109.4 97.6391 108.824 98.1079 108.398C98.5766 107.972 99.2094 107.759 100.006 107.759C100.807 107.759 101.442 107.972 101.911 108.398C102.379 108.824 102.614 109.4 102.614 110.126ZM101.377 114.011C101.377 113.589 101.25 113.249 100.997 112.992C100.747 112.73 100.415 112.599 100 112.599C99.5864 112.599 99.2544 112.728 99.0044 112.986C98.7583 113.244 98.6352 113.585 98.6352 114.011C98.6352 114.429 98.7563 114.763 98.9985 115.013C99.2446 115.263 99.5825 115.388 100.012 115.388C100.442 115.388 100.776 115.267 101.014 115.025C101.256 114.783 101.377 114.445 101.377 114.011ZM101.196 110.179C101.196 109.808 101.088 109.503 100.874 109.265C100.659 109.023 100.37 108.902 100.006 108.902C99.643 108.902 99.3559 109.017 99.145 109.247C98.9341 109.474 98.8286 109.785 98.8286 110.179C98.8286 110.57 98.9341 110.88 99.145 111.111C99.3598 111.341 99.6489 111.456 100.012 111.456C100.375 111.456 100.663 111.341 100.874 111.111C101.088 110.88 101.196 110.57 101.196 110.179Z" fill="#595959"/>
<path d="M135.906 92.7695L136.369 88.4688H140.951V89.6992H137.553L137.319 91.7383C137.713 91.5117 138.158 91.3984 138.654 91.3984C139.467 91.3984 140.098 91.6582 140.547 92.1777C141 92.6973 141.227 93.3965 141.227 94.2754C141.227 95.1426 140.977 95.834 140.477 96.3496C139.977 96.8613 139.291 97.1172 138.42 97.1172C137.639 97.1172 136.99 96.8965 136.475 96.4551C135.963 96.0098 135.686 95.4238 135.643 94.6973H137.02C137.074 95.1113 137.223 95.4297 137.465 95.6523C137.707 95.8711 138.024 95.9805 138.414 95.9805C138.852 95.9805 139.192 95.8242 139.434 95.5117C139.68 95.1992 139.803 94.7734 139.803 94.2344C139.803 93.7148 139.668 93.3047 139.399 93.0039C139.129 92.6992 138.758 92.5469 138.285 92.5469C138.028 92.5469 137.809 92.582 137.629 92.6523C137.449 92.7188 137.254 92.8516 137.043 93.0508L135.906 92.7695ZM144.192 92.084H145.06C145.497 92.0801 145.843 91.9668 146.097 91.7441C146.354 91.5215 146.483 91.1992 146.483 90.7773C146.483 90.3711 146.376 90.0566 146.161 89.834C145.95 89.6074 145.626 89.4941 145.188 89.4941C144.806 89.4941 144.491 89.6055 144.245 89.8281C143.999 90.0469 143.876 90.334 143.876 90.6895H142.452C142.452 90.252 142.567 89.8535 142.798 89.4941C143.032 89.1348 143.356 88.8555 143.77 88.6562C144.188 88.4531 144.655 88.3516 145.171 88.3516C146.022 88.3516 146.69 88.5664 147.175 88.9961C147.663 89.4219 147.907 90.0156 147.907 90.7773C147.907 91.1602 147.784 91.5215 147.538 91.8613C147.296 92.1973 146.981 92.4512 146.595 92.623C147.063 92.7832 147.419 93.0352 147.661 93.3789C147.907 93.7227 148.03 94.1328 148.03 94.6094C148.03 95.375 147.767 95.9844 147.239 96.4375C146.716 96.8906 146.026 97.1172 145.171 97.1172C144.351 97.1172 143.679 96.8984 143.155 96.4609C142.632 96.0234 142.37 95.4414 142.37 94.7148H143.794C143.794 95.0898 143.919 95.3945 144.169 95.6289C144.423 95.8633 144.763 95.9805 145.188 95.9805C145.63 95.9805 145.978 95.8633 146.231 95.6289C146.485 95.3945 146.612 95.0547 146.612 94.6094C146.612 94.1602 146.479 93.8145 146.214 93.5723C145.948 93.3301 145.554 93.209 145.03 93.209H144.192V92.084Z" fill="#595959"/>
<path d="M187.203 89.2598L183.793 97H182.299L185.703 89.6113H181.291V88.4688H187.203V89.2598ZM193.919 90.7188C193.919 91.1367 193.811 91.5098 193.597 91.8379C193.382 92.1621 193.089 92.418 192.718 92.6055C193.163 92.8125 193.505 93.0957 193.743 93.4551C193.985 93.8145 194.106 94.2207 194.106 94.6738C194.106 95.4238 193.853 96.0195 193.345 96.4609C192.837 96.8984 192.161 97.1172 191.317 97.1172C190.47 97.1172 189.79 96.8965 189.278 96.4551C188.77 96.0137 188.517 95.4199 188.517 94.6738C188.517 94.2168 188.638 93.8066 188.88 93.4434C189.122 93.0801 189.462 92.8008 189.899 92.6055C189.532 92.418 189.241 92.1621 189.026 91.8379C188.815 91.5098 188.71 91.1367 188.71 90.7188C188.71 89.9922 188.944 89.416 189.413 88.9902C189.882 88.5645 190.515 88.3516 191.311 88.3516C192.112 88.3516 192.747 88.5645 193.216 88.9902C193.685 89.416 193.919 89.9922 193.919 90.7188ZM192.683 94.6035C192.683 94.1816 192.556 93.8418 192.302 93.584C192.052 93.3223 191.72 93.1914 191.306 93.1914C190.892 93.1914 190.56 93.3203 190.31 93.5781C190.063 93.8359 189.94 94.1777 189.94 94.6035C189.94 95.0215 190.061 95.3555 190.304 95.6055C190.55 95.8555 190.888 95.9805 191.317 95.9805C191.747 95.9805 192.081 95.8594 192.319 95.6172C192.561 95.375 192.683 95.0371 192.683 94.6035ZM192.501 90.7715C192.501 90.4004 192.394 90.0957 192.179 89.8574C191.964 89.6152 191.675 89.4941 191.311 89.4941C190.948 89.4941 190.661 89.6094 190.45 89.8398C190.239 90.0664 190.134 90.377 190.134 90.7715C190.134 91.1621 190.239 91.4727 190.45 91.7031C190.665 91.9336 190.954 92.0488 191.317 92.0488C191.681 92.0488 191.968 91.9336 192.179 91.7031C192.394 91.4727 192.501 91.1621 192.501 90.7715Z" fill="#595959"/>
<path d="M209.899 90.7188C209.899 91.1367 209.791 91.5098 209.576 91.8379C209.361 92.1621 209.069 92.418 208.697 92.6055C209.143 92.8125 209.485 93.0957 209.723 93.4551C209.965 93.8145 210.086 94.2207 210.086 94.6738C210.086 95.4238 209.832 96.0195 209.324 96.4609C208.817 96.8984 208.141 97.1172 207.297 97.1172C206.449 97.1172 205.77 96.8965 205.258 96.4551C204.75 96.0137 204.496 95.4199 204.496 94.6738C204.496 94.2168 204.617 93.8066 204.86 93.4434C205.102 93.0801 205.442 92.8008 205.879 92.6055C205.512 92.418 205.221 92.1621 205.006 91.8379C204.795 91.5098 204.69 91.1367 204.69 90.7188C204.69 89.9922 204.924 89.416 205.393 88.9902C205.861 88.5645 206.494 88.3516 207.291 88.3516C208.092 88.3516 208.727 88.5645 209.195 88.9902C209.664 89.416 209.899 89.9922 209.899 90.7188ZM208.662 94.6035C208.662 94.1816 208.535 93.8418 208.281 93.584C208.031 93.3223 207.699 93.1914 207.285 93.1914C206.871 93.1914 206.539 93.3203 206.289 93.5781C206.043 93.8359 205.92 94.1777 205.92 94.6035C205.92 95.0215 206.041 95.3555 206.283 95.6055C206.529 95.8555 206.867 95.9805 207.297 95.9805C207.727 95.9805 208.061 95.8594 208.299 95.6172C208.541 95.375 208.662 95.0371 208.662 94.6035ZM208.481 90.7715C208.481 90.4004 208.373 90.0957 208.158 89.8574C207.944 89.6152 207.654 89.4941 207.291 89.4941C206.928 89.4941 206.641 89.6094 206.43 89.8398C206.219 90.0664 206.113 90.377 206.113 90.7715C206.113 91.1621 206.219 91.4727 206.43 91.7031C206.645 91.9336 206.934 92.0488 207.297 92.0488C207.66 92.0488 207.947 91.9336 208.158 91.7031C208.373 91.4727 208.481 91.1621 208.481 90.7715ZM215.976 88.4277V89.6055H215.8C215.003 89.6172 214.366 89.8359 213.89 90.2617C213.413 90.6875 213.13 91.291 213.04 92.0723C213.497 91.5918 214.081 91.3516 214.792 91.3516C215.546 91.3516 216.14 91.6172 216.573 92.1484C217.011 92.6797 217.229 93.3652 217.229 94.2051C217.229 95.0723 216.974 95.7754 216.462 96.3145C215.954 96.8496 215.286 97.1172 214.458 97.1172C213.606 97.1172 212.915 96.8027 212.384 96.1738C211.856 95.5449 211.593 94.7207 211.593 93.7012V93.2148C211.593 91.7188 211.956 90.5469 212.683 89.6992C213.413 88.8516 214.462 88.4277 215.829 88.4277H215.976ZM214.446 92.5C214.134 92.5 213.847 92.5879 213.585 92.7637C213.327 92.9395 213.138 93.1738 213.017 93.4668V93.9004C213.017 94.5332 213.149 95.0371 213.415 95.4121C213.681 95.7832 214.024 95.9688 214.446 95.9688C214.868 95.9688 215.202 95.8105 215.448 95.4941C215.694 95.1777 215.817 94.7617 215.817 94.2461C215.817 93.7305 215.692 93.3105 215.442 92.9863C215.192 92.6621 214.86 92.5 214.446 92.5Z" fill="#595959"/>
<path d="M210.084 129.534C210.084 129.952 209.977 130.325 209.762 130.653C209.547 130.977 209.254 131.233 208.883 131.421C209.328 131.628 209.67 131.911 209.908 132.27C210.15 132.63 210.272 133.036 210.272 133.489C210.272 134.239 210.018 134.835 209.51 135.276C209.002 135.714 208.326 135.932 207.482 135.932C206.635 135.932 205.955 135.712 205.443 135.27C204.936 134.829 204.682 134.235 204.682 133.489C204.682 133.032 204.803 132.622 205.045 132.259C205.287 131.895 205.627 131.616 206.064 131.421C205.697 131.233 205.406 130.977 205.191 130.653C204.981 130.325 204.875 129.952 204.875 129.534C204.875 128.807 205.109 128.231 205.578 127.806C206.047 127.38 206.68 127.167 207.477 127.167C208.277 127.167 208.912 127.38 209.381 127.806C209.85 128.231 210.084 128.807 210.084 129.534ZM208.848 133.419C208.848 132.997 208.721 132.657 208.467 132.399C208.217 132.138 207.885 132.007 207.471 132.007C207.057 132.007 206.725 132.136 206.475 132.393C206.229 132.651 206.106 132.993 206.106 133.419C206.106 133.837 206.227 134.171 206.469 134.421C206.715 134.671 207.053 134.796 207.482 134.796C207.912 134.796 208.246 134.675 208.484 134.432C208.727 134.19 208.848 133.852 208.848 133.419ZM208.666 129.587C208.666 129.216 208.559 128.911 208.344 128.673C208.129 128.431 207.84 128.309 207.477 128.309C207.113 128.309 206.826 128.425 206.615 128.655C206.404 128.882 206.299 129.192 206.299 129.587C206.299 129.977 206.404 130.288 206.615 130.518C206.83 130.749 207.119 130.864 207.482 130.864C207.846 130.864 208.133 130.749 208.344 130.518C208.559 130.288 208.666 129.977 208.666 129.587ZM217.292 132.224C217.292 133.45 217.061 134.376 216.6 135.001C216.143 135.622 215.446 135.932 214.509 135.932C213.587 135.932 212.891 135.63 212.423 135.024C211.958 134.415 211.72 133.515 211.708 132.323V130.847C211.708 129.62 211.936 128.7 212.393 128.087C212.854 127.474 213.556 127.167 214.497 127.167C215.431 127.167 216.126 127.466 216.583 128.063C217.044 128.661 217.28 129.556 217.292 130.747V132.224ZM215.868 130.63C215.868 129.829 215.759 129.243 215.54 128.872C215.321 128.497 214.973 128.309 214.497 128.309C214.032 128.309 213.69 128.487 213.472 128.843C213.253 129.194 213.138 129.745 213.126 130.495V132.429C213.126 133.225 213.237 133.819 213.46 134.21C213.682 134.6 214.032 134.796 214.509 134.796C214.966 134.796 215.304 134.616 215.522 134.257C215.741 133.893 215.856 133.327 215.868 132.557V130.63Z" fill="#595959"/>
<path d="M187.491 128.075L184.08 135.815H182.586L185.991 128.427H181.579V127.284H187.491V128.075ZM193.65 132.774H194.71V133.917H193.65V135.815H192.226V133.917H188.54L188.499 133.05L192.179 127.284H193.65V132.774ZM189.993 132.774H192.226V129.212L192.12 129.399L189.993 132.774Z" fill="#595959"/>
<path d="M136.398 112.177L136.86 107.876H141.442V109.107H138.044L137.81 111.146C138.204 110.919 138.649 110.806 139.146 110.806C139.958 110.806 140.589 111.066 141.038 111.585C141.491 112.105 141.718 112.804 141.718 113.683C141.718 114.55 141.468 115.242 140.968 115.757C140.468 116.269 139.782 116.525 138.911 116.525C138.13 116.525 137.481 116.304 136.966 115.863C136.454 115.417 136.177 114.831 136.134 114.105H137.511C137.565 114.519 137.714 114.837 137.956 115.06C138.198 115.279 138.515 115.388 138.905 115.388C139.343 115.388 139.683 115.232 139.925 114.919C140.171 114.607 140.294 114.181 140.294 113.642C140.294 113.122 140.159 112.712 139.89 112.411C139.62 112.107 139.249 111.954 138.776 111.954C138.519 111.954 138.3 111.99 138.12 112.06C137.94 112.126 137.745 112.259 137.534 112.458L136.398 112.177ZM143.418 112.177L143.881 107.876H148.463V109.107H145.064L144.83 111.146C145.224 110.919 145.67 110.806 146.166 110.806C146.978 110.806 147.609 111.066 148.058 111.585C148.512 112.105 148.738 112.804 148.738 113.683C148.738 114.55 148.488 115.242 147.988 115.757C147.488 116.269 146.803 116.525 145.931 116.525C145.15 116.525 144.502 116.304 143.986 115.863C143.474 115.417 143.197 114.831 143.154 114.105H144.531C144.586 114.519 144.734 114.837 144.976 115.06C145.219 115.279 145.535 115.388 145.926 115.388C146.363 115.388 146.703 115.232 146.945 114.919C147.191 114.607 147.314 114.181 147.314 113.642C147.314 113.122 147.18 112.712 146.91 112.411C146.64 112.107 146.269 111.954 145.797 111.954C145.539 111.954 145.32 111.99 145.14 112.06C144.961 112.126 144.765 112.259 144.555 112.458L143.418 112.177Z" fill="#595959"/>
<path d="M118.342 113.367H119.402V114.509H118.342V116.408H116.918V114.509H113.232L113.191 113.642L116.871 107.876H118.342V113.367ZM114.686 113.367H116.918V109.804L116.813 109.992L114.686 113.367ZM125.362 113.367H126.423V114.509H125.362V116.408H123.938V114.509H120.253L120.212 113.642L123.891 107.876H125.362V113.367ZM121.706 113.367H123.938V109.804L123.833 109.992L121.706 113.367Z" fill="#595959"/>
<path d="M163.955 107.835V109.013H163.779C162.982 109.025 162.346 109.244 161.869 109.669C161.393 110.095 161.109 110.699 161.02 111.48C161.477 110.999 162.061 110.759 162.772 110.759C163.525 110.759 164.119 111.025 164.553 111.556C164.99 112.087 165.209 112.773 165.209 113.613C165.209 114.48 164.953 115.183 164.441 115.722C163.934 116.257 163.266 116.525 162.438 116.525C161.586 116.525 160.895 116.21 160.363 115.581C159.836 114.953 159.572 114.128 159.572 113.109V112.622C159.572 111.126 159.936 109.954 160.662 109.107C161.393 108.259 162.441 107.835 163.809 107.835H163.955ZM162.426 111.908C162.113 111.908 161.826 111.995 161.564 112.171C161.307 112.347 161.117 112.581 160.996 112.874V113.308C160.996 113.941 161.129 114.445 161.395 114.82C161.66 115.191 162.004 115.376 162.426 115.376C162.848 115.376 163.182 115.218 163.428 114.902C163.674 114.585 163.797 114.169 163.797 113.654C163.797 113.138 163.672 112.718 163.422 112.394C163.172 112.07 162.84 111.908 162.426 111.908ZM170.583 112.839C170.106 113.343 169.55 113.595 168.913 113.595C168.163 113.595 167.565 113.333 167.12 112.81C166.675 112.283 166.452 111.591 166.452 110.736C166.452 110.173 166.565 109.663 166.792 109.206C167.018 108.749 167.341 108.394 167.759 108.14C168.177 107.886 168.661 107.759 169.212 107.759C170.071 107.759 170.753 108.079 171.257 108.72C171.761 109.361 172.013 110.218 172.013 111.292V111.691C172.013 113.23 171.665 114.404 170.97 115.212C170.274 116.021 169.237 116.431 167.858 116.443H167.688V115.265H167.893C168.733 115.253 169.378 115.052 169.827 114.661C170.276 114.267 170.528 113.66 170.583 112.839ZM169.212 112.482C169.497 112.482 169.764 112.4 170.014 112.236C170.264 112.072 170.458 111.845 170.595 111.556V110.999C170.595 110.37 170.466 109.865 170.208 109.482C169.95 109.099 169.616 108.908 169.206 108.908C168.796 108.908 168.468 109.078 168.222 109.417C167.979 109.753 167.858 110.179 167.858 110.695C167.858 111.23 167.981 111.661 168.227 111.99C168.473 112.318 168.802 112.482 169.212 112.482Z" fill="#595959"/>
<path d="M16.5001 83.5001H222.5V129.2C222.5 131.449 222.5 133.105 222.393 134.414C222.286 135.717 222.077 136.632 221.683 137.405C220.964 138.816 219.816 139.964 218.405 140.683C217.632 141.077 216.717 141.286 215.414 141.393C214.105 141.5 212.449 141.5 210.2 141.5H28.8001C26.5517 141.5 24.8954 141.5 23.5865 141.393C22.2834 141.286 21.3686 141.077 20.5952 140.683C19.184 139.964 18.0366 138.816 17.3176 137.405C16.9235 136.632 16.7139 135.717 16.6075 134.414C16.5005 133.105 16.5001 131.449 16.5001 129.2V83.5001Z" stroke="#C8C8C8"/>
<path d="M213 167.5L206.5 174L203 170.5L204.5 169L206.5 171L211.5 166L213 167.5Z" fill="#212121"/>
<path d="M212 155H204C197.925 155 193 159.925 193 166V174C193 180.075 197.925 185 204 185H212C218.075 185 223 180.075 223 174V166C223 159.925 218.075 155 212 155Z" stroke="#FFCD17" stroke-width="2"/>
</svg>
